<?xml version="1.0" standalone="no"?>
<!DOCTYPE svg PUBLIC "-//W3C//DTD SVG 1.1//EN" "http://www.w3.org/Graphics/SVG/1.1/DTD/svg11.dtd" >
<svg xmlns="http://www.w3.org/2000/svg" xmlns:xlink="http://www.w3.org/1999/xlink" version="1.1">
<metadata>
Created by FontForge 20161003 at Thu Feb  2 19:26:46 2017
 By www-data
Sophia(c)2000  &#60;lutz@antropos.org&#62; Lutz Baar, Sweden
</metadata>
<defs>
<font id="BaarSophia" horiz-adv-x="504" >
  <font-face 
    font-family="Baar Sophia"
    font-weight="400"
    font-stretch="normal"
    units-per-em="1000"
    panose-1="0 0 4 0 0 0 0 0 0 0"
    ascent="800"
    descent="-200"
    x-height="500"
    cap-height="668"
    bbox="-104 -220 1089.05 875"
    underline-thickness="50"
    underline-position="-125"
    unicode-range="U+0020-F000"
  />
<missing-glyph horiz-adv-x="500" 
d="M63 0v875h375v-875h-375zM125 63h250v750h-250v-750z" />
    <glyph glyph-name=".notdef" horiz-adv-x="500" 
d="M63 0v875h375v-875h-375zM125 63h250v750h-250v-750z" />
    <glyph glyph-name=".null" horiz-adv-x="0" 
 />
    <glyph glyph-name="nonmarkingreturn" horiz-adv-x="245" 
 />
    <glyph glyph-name="space" unicode=" " horiz-adv-x="245" 
 />
    <glyph glyph-name="exclam" unicode="!" horiz-adv-x="278" 
d="M194 221v-2q-36 -2 -68 -5l-1 2q1 92 1 175q0 186 -6 328l1 1q51 1 102 4q-29 -317 -29 -503zM207 -4q-50 -1 -95 -3l-2 3q1 41 -1 92l3 3q57 0 93 2l3 -4q0 -30 1 -90z" />
    <glyph glyph-name="quotedbl" unicode="&#x22;" horiz-adv-x="335" 
d="M202 413l-30 257q-1 9 -1 13v4q28 12 45 12q3 0 35 -1q2 -10 1 -12l-39 -271q-6 -2 -11 -2zM87 409h-11l-30 280q30 10 54 10q10 0 25 -2q1 -5 2 -15v-1z" />
    <glyph glyph-name="numbersign" unicode="#" horiz-adv-x="598" 
d="M524 409l-130 -3l-19 -127l125 2l-1 -54l-132 -3l-32 -225l-59 -1l33 225l-110 -2l-33 -225l-60 -1l35 225l-125 -3l1 55l130 2l19 128l-127 -3v55l134 2l30 211l60 1l-31 -211l109 3l32 210l57 1l-29 -210l124 2zM224 403l-18 -127l111 2l18 127z" />
    <glyph glyph-name="dollar" unicode="$" horiz-adv-x="430" 
d="M312 730q-9 -29 -22 -83q49 -14 87 -34q-8 -36 -13 -61l-3 -1q-34 26 -82 45l-55 -235q85 -53 102 -69q51 -47 52 -116q1 -84 -57.5 -135t-143.5 -51q-13 0 -43 2l-18 -82q-24 1 -40 0q8 27 22 86q-59 16 -92 35q5 22 15 65l3 1q34 -27 89 -45l59 254q-78 53 -95 70
q-48 48 -49 110q-2 92 69 135q60 36 156 31l14 75l3 2zM189 381l55 222q-49 -1 -91 -25q-53 -30 -52 -81q0 -37 31 -69q11 -11 57 -47zM204 288l-56 -245q157 7 155 123q-1 42 -34 75q-17 17 -65 47z" />
    <glyph glyph-name="percent" unicode="%" horiz-adv-x="874" 
d="M488 186q-2 103 27 168q38 89 129 89q125 0 128 -196q1 -100 -27 -166q-39 -90 -126 -90q-128 0 -131 195zM322 -3l-4 -4h-60q49 122 126 329q79 212 124 346l5 5l58 1q-121 -314 -249 -677zM58 419q-1 100 27 165q38 90 126 90q127 0 130 -200q2 -100 -26 -164
q-38 -87 -127 -87q-127 0 -130 196zM638 395q-51 0 -73 -82q-14 -54 -13 -131q3 -142 71 -142q88 0 85 219q-2 136 -70 136zM209 626q-52 0 -74 -81q-14 -53 -13 -131q2 -143 71 -143q88 0 85 226q-2 129 -69 129z" />
    <glyph glyph-name="ampersand" unicode="&#x26;" horiz-adv-x="541" 
d="M390 0l-5 2q-18 30 -40 66q-94 -80 -176 -80q-68 0 -111 42.5t-44 110.5t43 120q23 27 95 79q-67 97 -68 160q-1 67 42 110t110 43q59 0 97 -35t38 -93q0 -57 -43 -109q-26 -31 -85 -75l118 -165q42 74 64 137h2q22 -33 42 -59q-24 -56 -74 -127q26 -36 103 -124l-3 -3
h-105zM229 604q-36 0 -56 -29q-17 -25 -17 -62q1 -49 57 -128q43 33 61 56q30 38 29 81q-1 34 -20.5 58t-53.5 24zM185 296q-44 -35 -63 -60q-30 -40 -30 -85q0 -44 26.5 -73.5t70.5 -29.5q51 0 125 64z" />
    <glyph glyph-name="quotesingle" unicode="'" horiz-adv-x="188" 
d="M141 730q-59 -164 -83 -254l-3 -3q-34 -2 -60 -4q32 134 51 249l3 3q53 4 92 9z" />
    <glyph glyph-name="parenleft" unicode="(" horiz-adv-x="350" 
d="M336 728q-192 -221 -188 -498q4 -248 169 -435l-53 -4l-5 3q-193 197 -197 442q-2 138 59 265q51 107 156 223q2 1 59 4z" />
    <glyph glyph-name="parenright" unicode=")" horiz-adv-x="360" 
d="M12 723l53 4l5 -2q197 -201 197 -442v-17q0 -206 -158 -404q-26 -32 -57 -66l-6 -4l-53 -1q191 220 187 499q-4 246 -168 433z" />
    <glyph glyph-name="asterisk" unicode="*" horiz-adv-x="393" 
d="M325 609q-60 -34 -128 -74l129 -60l-30 -59l-8 -1q-54 49 -108 96q8 -85 17 -162l-2 -3q-33 0 -71 -2q10 67 25 164q-72 -59 -117 -98h-6q-16 31 -30 55q45 22 143 73l-142 66q14 18 32 56l6 1q42 -35 111 -91q-8 101 -16 160q27 1 72 5q-9 -67 -20 -165q63 53 111 97h7
q10 -17 28 -50z" />
    <glyph glyph-name="plus" unicode="+" horiz-adv-x="598" 
d="M508 243h-203l-4 -248l-64 -2l3 248l-201 3l1 63l201 -3l4 237l64 2l-4 -236h203v-64z" />
    <glyph glyph-name="comma" unicode="," horiz-adv-x="203" 
d="M176 112q-40 -114 -82 -251l-3 -5q-29 0 -61 -3q37 151 51 250l3 3q51 2 92 6z" />
    <glyph glyph-name="hyphen" unicode="-" horiz-adv-x="401" 
d="M340 316l-3 -91h-67q-129 0 -212 -4q1 3 3 89l2 2q20 1 58 0q39 -1 58 -1q98 0 161 5z" />
    <glyph glyph-name="hyphen" unicode="&#x2010;" horiz-adv-x="401" 
d="M340 316l-3 -91h-67q-129 0 -212 -4q1 3 3 89l2 2q20 1 58 0q39 -1 58 -1q98 0 161 5z" />
    <glyph glyph-name="period" unicode="." horiz-adv-x="236" 
d="M160 4l-2 -3l-96 -4l-1 1q2 58 0 114l3 3q55 1 94 3l3 -3q-2 -62 -1 -111z" />
    <glyph glyph-name="slash" unicode="/" horiz-adv-x="410" 
d="M394 722q-220 -532 -338 -855l-5 -6q-47 1 -72 1q25 57 170 418q76 190 169 436l4 4z" />
    <glyph glyph-name="zero" unicode="0" horiz-adv-x="548" 
d="M19 311q-11 376 245 376q117 0 173 -103q43 -79 47 -209q12 -386 -241 -386q-214 0 -224 322zM259 628q-88 0 -124 -114q-26 -82 -23 -202q3 -96 26 -162q36 -100 111 -100q152 0 143 318q-8 260 -133 260z" />
    <glyph glyph-name="one" unicode="1" horiz-adv-x="356" 
d="M237 2q-42 -1 -98 -6q6 383 3 619q-56 -12 -96 -22l-2 1q3 35 4 61l2 2q91 14 186 31l1 -1q-6 -98 -6 -382q0 -209 6 -303z" />
    <glyph glyph-name="two" unicode="2" horiz-adv-x="517" 
d="M449 6l-4 -5q-12 0 -136 3q-93 2 -137 2t-128 -5l-3 1l-12 35l1 12q119 145 236 292q34 43 47 67q21 39 20 83q-2 123 -109 123q-86 0 -162 -87l-4 3q1 29 1 86q6 9 26 23q71 49 160 49q85 0 131 -50.5t48 -136.5q1 -71 -50 -146q-40 -59 -109 -145q-111 -139 -113 -141
q143 2 298 13l1 -2q-1 -33 -2 -74z" />
    <glyph glyph-name="three" unicode="3" horiz-adv-x="529" 
d="M434 127q-62 -137 -248 -137q-91 0 -156 40l-2 2q2 32 5 76l5 3q67 -59 148 -59q74 0 123 43t48 117q-1 66 -41.5 103t-107.5 37q-29 0 -70 -15l-18 26q65 77 100 120q55 68 92 124q-63 -1 -262 -11q2 29 2 68l2 3q150 -3 245 -3q76 0 116 2l15 -33q-28 -41 -87 -113
q-63 -77 -89 -111q86 -14 138 -60q60 -51 61 -134q1 -44 -19 -88z" />
    <glyph glyph-name="four" unicode="4" horiz-adv-x="529" 
d="M476 185h-29q-7 0 -56 -1q-2 -79 -1 -182l-1 -2q-46 -1 -87 -4l-1 2q3 73 5 185l-298 -7v35q0 25 13.5 48.5t27.5 45.5l42 68q66 108 171 288l4 4q49 1 135 4q-8 -221 -8 -421q47 1 89 4q-2 -20 -6 -67zM95 241l214 4l6 356z" />
    <glyph glyph-name="five" unicode="5" horiz-adv-x="529" 
d="M176 -9q-79 0 -139 30l-2 2l5 76l4 2q61 -46 135 -46q78 0 129.5 46.5t50.5 124.5q-1 74 -44 115.5t-117 41.5q-35 0 -60 -10q-16 -6 -55 -30l-23 21q9 94 20 292l3 3q94 2 329 9l-3 -68l-2 -2q-44 1 -67 1q-30 0 -181 -5l-12 -151q48 7 81 7q99 0 161 -56.5t63 -155.5
q2 -114 -82 -183q-78 -64 -194 -64z" />
    <glyph glyph-name="six" unicode="6" horiz-adv-x="527" 
d="M258 -9q-118 0 -178 90q-50 75 -52 200q-3 173 60 275q76 124 240 124q63 0 100 -16q-2 -22 -12 -67h-5q-38 23 -74 23q-107 0 -160 -80q-41 -62 -61 -196q90 83 176 83q85 0 135 -56.5t51 -142.5q2 -102 -58 -168q-62 -69 -162 -69zM268 359q-90 0 -143 -101v-7
q0 -78 27 -129q35 -66 106 -66q64 0 100 49q33 45 32 111q-1 62 -30 100q-32 43 -92 43z" />
    <glyph glyph-name="seven" unicode="7" horiz-adv-x="447" 
d="M176 4l-4 -3q-46 -1 -106 -5q137 306 242 598q-26 0 -141 1q-86 1 -140 -5l-3 3q0 36 2 69l3 2h4q31 0 93 -1t93 -1q68 0 171 5l4 -2q17 -39 17 -42l-126 -306q-73 -179 -109 -313z" />
    <glyph glyph-name="eight" unicode="8" horiz-adv-x="529" 
d="M235 -10q-93 0 -152 47q-63 51 -64 142q-1 65 34 110q25 32 84 69q-86 66 -87 150q-2 89 72 136q59 38 143 38q83 0 135 -40q57 -44 58 -125q1 -76 -100 -151q57 -33 84 -66q32 -42 33 -100q1 -103 -78 -161q-67 -49 -162 -49zM260 619q-55 0 -91 -32.5t-36 -87.5
q0 -51 30.5 -81t81.5 -30q54 0 90.5 31.5t35.5 85.5q-1 50 -31.5 82t-79.5 32zM257 328q-66 0 -106 -37.5t-39 -103.5q1 -60 34.5 -97.5t92.5 -37.5q63 0 103 40.5t40 103.5q0 56 -34.5 94t-90.5 38z" />
    <glyph glyph-name="nine" unicode="9" horiz-adv-x="527" 
d="M51 17l-1 2q2 34 3 72l4 3q55 -43 118 -43q179 0 209 282q-81 -80 -178 -80q-85 0 -134.5 53t-50.5 139q-2 103 61 170.5t165 67.5q220 0 224 -296q2 -166 -59 -270q-75 -126 -231 -126q-63 0 -130 26zM244 619q-63 0 -101 -49q-35 -45 -34 -110q1 -61 29 -100
q32 -44 90 -44q102 0 146 101q2 27 1 35q-1 66 -32 113q-37 54 -99 54z" />
    <glyph glyph-name="colon" unicode=":" horiz-adv-x="241" 
d="M179 395l-95 -3l-2 3v102l2 3h13q29 0 81 2l2 -4q0 -44 1 -101zM179 1q-50 -1 -95 -3l-2 3v101l2 4q52 0 93 2l3 -4q0 -17 1 -101z" />
    <glyph glyph-name="semicolon" unicode=";" horiz-adv-x="242" 
d="M204 395l-96 -2l-1 2v102l3 3h22q26 0 71 2l3 -4q-1 -27 -1 -53q0 -24 1 -47zM194 101q-41 -109 -82 -240l-3 -4q-29 0 -58 -3q37 154 48 239l2 2q51 2 93 6z" />
    <glyph glyph-name="less" unicode="&#x3c;" horiz-adv-x="680" 
d="M616 609l-522 -282l513 -262v-63l-576 289l1 69l584 312v-63z" />
    <glyph glyph-name="equal" unicode="=" horiz-adv-x="599" 
d="M493 320l-414 2l1 64l414 -2zM491 151l-415 2l1 63l415 -2z" />
    <glyph glyph-name="greater" unicode="&#x3e;" horiz-adv-x="685" 
d="M617 305l-584 -313l1 63l522 283l-514 262l1 63l575 -290z" />
    <glyph glyph-name="question" unicode="?" horiz-adv-x="418" 
d="M227 195l-2 -3q-42 -1 -75 -3q7 50 21 85q12 29 43 82t42 81q19 48 19 92q-1 54 -27 88q-29 36 -82 36q-56 0 -120 -55l6 77l2 3q61 42 136 42q77 0 123.5 -45t47.5 -123q1 -77 -59 -181q-67 -117 -75 -176zM233 5l-2 -4q-52 -3 -95 -6l-2 2q2 69 1 96l3 4q55 2 94 6
l3 -3q-2 -50 -2 -95z" />
    <glyph glyph-name="at" unicode="@" horiz-adv-x="781" 
d="M48 237q-3 164 102.5 281.5t268.5 117.5q117 0 190.5 -70t75.5 -187q2 -105 -46 -196q-55 -104 -140 -104q-44 0 -79 62q-47 -58 -110 -58q-56 0 -89 44q-29 40 -30 98q-1 88 40 159q49 83 132 83q56 0 100 -59l9 45l5 4l65 -2q-14 -28 -34 -140q-19 -108 -19 -147
q1 -42 23 -42q34 0 70 61q53 91 51 190q-2 100 -60 157.5t-157 57.5q-139 0 -232 -112q-88 -106 -86 -247q2 -126 81.5 -201.5t205.5 -75.5q143 0 279 129l6 -1l24 -32q-143 -140 -303 -140q-148 0 -243 88q-98 90 -100 237zM372 415q-51 0 -84 -65q-28 -56 -27 -121
q1 -98 65 -98q76 0 107 137q7 31 7 38q0 39 -15 70q-18 39 -53 39z" />
    <glyph glyph-name="A" unicode="A" horiz-adv-x="555" 
d="M-8 -3l110 329q60 183 103 333l4 4q71 3 125 7l3 -3q29 -126 85 -331q37 -137 93 -330l-4 -4l-93 -5l-3 3q-16 71 -50 212q-106 -1 -228 -4q-36 -124 -56 -203l-3 -4q-44 0 -86 -4zM263 598l-108 -332q89 1 195 4z" />
    <glyph glyph-name="B" unicode="B" horiz-adv-x="564" 
d="M49 -3q1 38 7 318l4 211q0 51 -4 139q111 5 196 5q205 0 205 -150q0 -104 -127 -163q156 -37 156 -159q0 -84 -56 -137q-52 -50 -137 -59q-54 -6 -122 -6h-61q-41 1 -61 1zM173 371h18q62 0 114 29q66 37 66 103q0 109 -129 109h-27q-40 0 -69 -2l-5 -428q0 -41 1 -123
q103 2 114 3q138 13 138 139q0 117 -154 117q-65 0 -56 -1q-6 14 -11 54z" />
    <glyph glyph-name="C" unicode="C" horiz-adv-x="559" 
d="M496 120q-4 -53 -6 -85l-2 -3q-78 -45 -174 -45q-141 0 -218 95q-70 87 -73 232q-4 165 73 265q85 109 246 109q68 0 140 -27q2 -36 5 -106l-2 -2l-49 9l-16 51q-50 19 -80 19q-113 0 -173 -94q-54 -84 -51 -219q2 -113 50 -186q57 -85 164 -85q79 0 166 72z" />
    <glyph glyph-name="D" unicode="D" horiz-adv-x="642" 
d="M49 -4q13 266 8 574q0 27 -6 92l5 3h24q30 0 90.5 3.5t90.5 3.5q126 0 190 -45q106 -75 109 -256q1 -89 -26 -164q-39 -107 -124 -157q-71 -42 -173 -48zM247 614q-24 0 -97 -4q-10 -243 -9 -550q123 1 177 22q86 33 124 135q26 70 25 162q-3 235 -220 235z" />
    <glyph glyph-name="E" unicode="E" horiz-adv-x="490" 
d="M381 381q-3 -26 -5 -67l-1 -1q-32 0 -104 3q-48 2 -105 2h-21q-3 -128 -3 -255h37h223q-2 -22 -4 -64l-2 -2q-28 -1 -60 -1l-287 1q9 158 10 266l1 116q2 186 -2 282l2 1q116 0 349 3q-4 -42 -6 -67l-1 -2q-25 0 -118 4q-70 3 -118 3h-13q-5 -100 -7 -222h235z" />
    <glyph glyph-name="F" unicode="F" horiz-adv-x="432" 
d="M394 665q-3 -28 -6 -68l-2 -2q-36 0 -106.5 4.5t-106.5 4.5h-18q-3 -77 -7 -235q68 -1 204 2q-2 -22 -7 -65l-1 -2q-27 0 -93 2t-92 2h-11q-3 -112 -2 -206q1 -43 3 -99q-20 -1 -100 -6q6 94 10 308l1 61q2 150 -1 298q38 1 109 0l109 -1q66 0 117 2z" />
    <glyph glyph-name="G" unicode="G" horiz-adv-x="637" 
d="M540 322q-9 -128 -8 -290l-1 -1q-100 -44 -201 -44q-148 0 -234 93q-83 90 -85 240q-2 164 85 264q91 104 253 104q96 0 176 -38q-6 -42 -10 -80q-82 56 -165 56q-126 0 -189 -91q-55 -79 -53 -211q2 -116 55 -191q61 -86 171 -86q48 0 111 21q4 164 3 178l-1 16l-60 -1
l14 55l5 4q55 -2 66 -2q4 0 68 4z" />
    <glyph glyph-name="H" unicode="H" horiz-adv-x="638" 
d="M535 668q-13 -289 -9 -514q1 -87 5 -159q-36 -1 -98 -6q4 113 9 342h-152q-86 0 -151 -2q-2 -88 -2 -158q0 -105 4 -170q-46 -1 -97 -5q9 213 9 332v65l-1 268q23 1 95 6q-5 -164 -6 -272h29q30 -1 55 -1h84q75 0 134 3q1 208 -2 266q44 2 94 5z" />
    <glyph glyph-name="I" unicode="I" horiz-adv-x="246" 
d="M156 3q-40 -2 -95 -6q12 277 8 608l-52 -1l13 56l6 5l126 3q-10 -217 -10 -416q0 -128 4 -249z" />
    <glyph glyph-name="J" unicode="J" horiz-adv-x="301" 
d="M224 666q-4 -93 -10 -469q-2 -101 -33 -147q-39 -56 -134 -56q-29 0 -58 6q0 22 1 66q25 -7 43 -7q59 0 83 53q13 29 13 486v5l-71 -2l13 57l6 4l58 -1q20 0 89 5z" />
    <glyph glyph-name="K" unicode="K" horiz-adv-x="545" 
d="M469 667q-75 -97 -226 -300q111 -169 276 -361l-1 -3q-72 -2 -111 -7l-6 4q-86 117 -257 355q-2 -243 2 -352l-2 -1q-49 -1 -95 -5q14 325 10 576q-1 50 -5 92q31 0 99 5q-5 -98 -8 -307q45 53 159 199q22 32 72 101q36 1 93 4z" />
    <glyph glyph-name="L" unicode="L" horiz-adv-x="431" 
d="M387 3l-2 -2h-334q14 385 11 575q-1 51 -6 91q36 2 104 5q-16 -249 -16 -602q105 3 247 10q-1 -26 -4 -77z" />
    <glyph glyph-name="M" unicode="M" horiz-adv-x="768" 
d="M17 -5q6 54 26 405q5 72 16 260l6 4q54 1 116 5l3 -3q23 -76 72 -210q56 -153 82 -229q32 85 108 258q66 151 74 174l3 3q32 1 121 6l4 -214q1 -57 9 -224q6 -142 6 -226v-1q-34 -1 -93 -5l-1 577q-106 -238 -216 -478q-6 0 -46 -3l-2 3q-11 46 -98 270l-85 217
q-9 -190 -23 -583l-1 -2q-43 -1 -81 -4z" />
    <glyph glyph-name="N" unicode="N" horiz-adv-x="644" 
d="M534 3q-37 0 -107 -6l-5 5q-46 94 -149 288q-95 181 -149 289q0 -187 8 -576l-1 -1q-40 -1 -82 -5q9 204 9 466q0 157 -2 199l5 3q24 0 108 6l7 -5l291 -573q1 188 -6 569l1 1q34 1 81 5q-12 -426 -9 -665z" />
    <glyph glyph-name="O" unicode="O" horiz-adv-x="672" 
d="M19 318q-3 157 64 257q78 114 229 114q135 0 206 -100q62 -87 66 -228q4 -158 -63 -258q-76 -115 -228 -115q-136 0 -208 100q-63 87 -66 230zM310 628q-200 0 -194 -303q2 -110 37 -181q47 -94 145 -94q107 0 157 109q37 82 35 202q-6 267 -180 267z" />
    <glyph glyph-name="P" unicode="P" horiz-adv-x="539" 
d="M396 487q-2 133 -142 133q-35 0 -91 -6q-6 -212 -6 -386q0 -122 3 -225l-1 -2q-49 -1 -95 -4q3 71 6 266l1 61q3 185 -3 346q25 0 102 5q61 4 102 4q210 0 212 -188q1 -59 -27 -109q-64 -115 -260 -117l-22 57q73 3 113 15q110 33 108 150z" />
    <glyph glyph-name="Q" unicode="Q" horiz-adv-x="678" 
d="M628 -57q-16 -30 -35 -68l-5 -3q-32 14 -259 109q-7 3 -26 11q-11 1 -39 3q-121 12 -185 112q-54 85 -57 215q-4 159 63 257q77 112 229 112q133 0 206 -97q65 -86 68 -224q3 -121 -37 -204t-137 -153q133 -51 214 -70zM309 630q-107 0 -156 -106q-38 -81 -35 -199
q3 -107 39 -178q48 -93 144 -93q107 0 156 107q38 82 35 201q-3 107 -39 177q-48 91 -144 91z" />
    <glyph glyph-name="R" unicode="R" horiz-adv-x="544" 
d="M206 287q65 -96 190 -293l5 -3q33 3 106 6q-23 27 -80 102q-22 31 -130 197q71 16 122 79t50 135q-3 168 -207 168q-41 0 -100 -3q-79 -4 -101 -4q6 -165 4 -314l-1 -63q-1 -53 -7 -297q58 5 96 6q-4 86 -4 227q0 158 5 385q58 2 82 2q144 0 145 -122q0 -27 -11 -61
t-28 -51q-32 -31 -158 -49z" />
    <glyph glyph-name="S" unicode="S" horiz-adv-x="487" 
d="M184 -13q-90 0 -165 38q4 33 8 80l4 2q74 -55 148 -55q61 0 101 30q43 34 42 94q-1 72 -77 112q-14 8 -141 70q-76 51 -77 144q-1 92 67 142q60 44 155 44q63 0 145 -27l1 -2q-4 -39 -7 -75l-3 -1q-76 42 -138 42q-56 0 -92 -26q-42 -30 -41 -83q1 -65 79 -104
q18 -9 145 -70q78 -52 79 -142q2 -102 -66 -160q-63 -53 -167 -53z" />
    <glyph glyph-name="T" unicode="T" horiz-adv-x="446" 
d="M423 665q-4 -42 -4 -65l-2 -2h-31q-62 0 -136 -1q-7 -219 -7 -410q0 -96 2 -184q-36 0 -100 -5q15 312 11 607q-92 -3 -168 -7q0 21 3 63l1 2q143 -2 431 2z" />
    <glyph glyph-name="U" unicode="U" horiz-adv-x="637" 
d="M281 -13q-85 0 -143 39q-64 44 -77 125q-3 21 -4 60q3 129 4 388q-1 30 -3 61l4 4h12q37 0 84 4q-2 -66 -8 -365q-1 -58 -1 -70q3 -184 143 -184q143 0 156 180q1 16 2 81q3 236 -1 355q20 1 79 6q-4 -102 -6 -412q-1 -133 -53 -199q-58 -73 -188 -73z" />
    <glyph glyph-name="V" unicode="V" horiz-adv-x="509" 
d="M479 667q-50 -168 -203 -662q-23 0 -122 -6l-3 4l-157 592q-5 19 -18 67l6 3h11q25 0 82 4l2 -3q39 -183 147 -584q59 188 169 577l3 4q43 1 83 4z" />
    <glyph glyph-name="W" unicode="W" horiz-adv-x="786" 
d="M585 5l-4 -4q-66 -2 -129 -6l-3 4q-12 97 -41 255q-30 168 -44 255q-15 -58 -48 -190l-43 -180q-10 -37 -34 -133l-3 -5q-31 -1 -117 -5l-3 4l-68 365q-19 105 -63 297l2 2q54 2 99 5l2 -4q9 -65 36 -236l60 -347q47 181 131 535l3 3q25 1 95 5l3 -3q4 -68 102 -538
l80 363q14 64 40 209l3 4q41 1 93 5q-24 -85 -75 -316q-22 -95 -74 -344z" />
    <glyph glyph-name="X" unicode="X" horiz-adv-x="486" 
d="M451 664q-62 -100 -184 -308l176 -350l-98 -9l-5 3q-41 91 -127 274q-76 -138 -138 -267l-6 -5q-46 -1 -93 -4q68 115 201 350q-85 171 -166 316q66 5 99 11l4 -3q4 -9 117 -248q124 237 129 241q31 -1 91 -1z" />
    <glyph glyph-name="Y" unicode="Y" horiz-adv-x="484" 
d="M459 669q-68 -126 -199 -384q-2 -85 -2 -155t2 -127l-2 -1q-11 0 -94 -7q7 139 6 256q0 12 -2 24q-99 220 -185 389q33 0 99 3l4 -2q17 -45 137 -311q102 202 150 310l4 4q27 -1 82 1z" />
    <glyph glyph-name="Z" unicode="Z" horiz-adv-x="468" 
d="M98 63q53 -2 154 5q105 8 154 7q-1 -5 -10 -71l-3 -2q-81 4 -206 2q-161 -3 -205 -2l-4 36q60 98 209 354l118 212q-35 1 -73 1q-26 0 -85 -5q-55 -4 -85 -3l-34 1q5 29 8 63l3 3q69 -4 189 -2l189 2l10 -29q-4 -6 -65 -104q-49 -79 -264 -468z" />
    <glyph glyph-name="bracketleft" unicode="[" horiz-adv-x="277" 
d="M261 719q-2 -22 -2 -52h-86q-19 -291 -18 -824q54 2 93 5q-2 -23 -3 -54q-10 0 -176 -3q6 88 9 228q10 536 6 695h18q44 0 159 5z" />
    <glyph glyph-name="backslash" unicode="\" horiz-adv-x="410" 
d="M-7 723l72 1l5 -4q59 -182 230 -632q23 -61 84 -218l-3 -2l-70 -1l-4 4q-151 440 -314 852z" />
    <glyph glyph-name="bracketright" unicode="]" horiz-adv-x="283" 
d="M192 720q-7 -80 -9 -219q-10 -556 -7 -705h-17q-63 0 -160 -5q2 22 3 52h29q21 0 63 1q12 176 13 411q0 3 -2 412q-53 -1 -92 -4q2 23 3 53q10 0 176 4z" />
    <glyph glyph-name="asciicircum" unicode="^" horiz-adv-x="656" 
d="M397 322l-108 266l-121 -271l-69 -1l161 354l64 1l144 -347z" />
    <glyph glyph-name="underscore" unicode="_" horiz-adv-x="448" 
d="M-8 -123v50l446 -1v-50z" />
    <glyph glyph-name="grave" unicode="`" horiz-adv-x="421" 
d="M215 552q-50 100 -83 159l97 -2l3 -2q6 -31 41 -150l-4 -3q-28 1 -54 -2z" />
    <glyph glyph-name="a" unicode="a" 
d="M407 208l-1 -214q-22 1 -85 42q-67 -48 -121 -48q-86 0 -136 71q-43 61 -46 152q-4 131 63 209q71 81 200 81q64 0 89 -13q38 -19 40 -75q0 -11 -1 -88zM281 441q-94 5 -141 -66q-40 -61 -37 -159q2 -65 27 -108q31 -53 90 -53q53 0 103 49q4 242 3 292q0 18 -13.5 31
t-31.5 14z" />
    <glyph glyph-name="b" unicode="b" horiz-adv-x="499" 
d="M151 -6q-25 0 -33 2q-12 3 -41.5 20.5t-38.5 26.5q14 337 11 537q-1 60 -6 129l92 22l1 -1l-9 -279q82 47 136 47q88 0 137 -69q45 -61 46 -152q1 -99 -44 -170q-50 -76 -142 -101q-45 -12 -109 -12zM234 438q-46 0 -106 -42l-6 -339q32 -5 53 -5q92 0 142 66
q45 60 44 155q-1 65 -31 111q-35 54 -96 54z" />
    <glyph glyph-name="c" unicode="c" horiz-adv-x="405" 
d="M358 488q-3 -38 -5 -67l-3 -1q-38 26 -85 26q-79 0 -127 -71q-41 -62 -39 -145q2 -74 34 -122q37 -58 107 -58q59 0 117 52q-4 -47 -5 -75q-43 -39 -130 -39q-99 0 -155 72q-51 65 -54 167q-3 112 62 193q68 86 179 86q61 0 104 -18z" />
    <glyph glyph-name="d" unicode="d" horiz-adv-x="523" 
d="M418 235q0 -127 7 -228l-2 -3q-20 1 -48 14l-46 21q-70 -48 -126 -48q-89 0 -141 71q-45 62 -47 155q-3 132 70.5 208t205.5 76q23 0 50 -2q1 65 0 121q-1 36 -4 85q36 8 92 23q-11 -237 -11 -493zM291 444q-97 0 -147 -64q-45 -59 -43 -159q1 -64 29 -109q34 -54 94 -54
q58 0 111 49q3 151 3 335q-34 2 -47 2z" />
    <glyph glyph-name="e" unicode="e" horiz-adv-x="474" 
d="M393 316q-95 -28 -286 -83q11 -184 151 -184q74 0 144 63q-3 -35 -6 -80q-17 -20 -71 -33q-45 -11 -79 -11q-105 0 -165 65q-57 62 -60 169q-3 117 46 197q58 95 169 95q70 0 121 -44q46 -41 67 -111q-8 -16 -31 -43zM231 461q-93 0 -129 -163l236 63q-51 100 -107 100z
" />
    <glyph glyph-name="f" unicode="f" horiz-adv-x="310" 
d="M281 775q-2 -10 -4 -55h-4q-68 0 -99 -57q-14 -26 -17 -86q-1 -21 0 -91q38 1 113 5q-2 -20 -4 -59l-1 -2q-17 0 -108 -1q-2 -169 0 -321q1 -47 3 -103q-7 0 -93 -8q9 165 10 428l-60 -3l-2 2q2 21 4 52l5 5h51q4 196 79 256q48 39 94 39q19 0 33 -1z" />
    <glyph glyph-name="g" unicode="g" 
d="M409 229q0 -77 -3 -222q-2 -85 -51 -143q-18 -22 -54 -39.5t-64 -18.5q-38 -1 -85 5q-55 8 -81 21l3 85q26 -20 66 -34t73 -14q22 0 38 6q79 30 77 161q-66 -48 -128 -48q-86 0 -136 71q-43 61 -46 152q-4 131 63 209q71 81 200 81q68 0 94 -15q35 -20 35 -73
q-1 -53 -1 -184zM281 441q-94 5 -141 -66q-40 -61 -37 -159q2 -65 27 -108q31 -53 90 -53q56 0 106 49q2 130 0 292q0 18 -13.5 31t-31.5 14z" />
    <glyph glyph-name="h" unicode="h" horiz-adv-x="540" 
d="M357 -75l4 71q9 155 -6 329q-9 110 -83 110q-53 0 -128 -60q-2 -108 -2 -200t2 -170q-31 -1 -92 -4q5 129 9 386l2 200q-1 64 -4 118q37 8 95 23q-8 -110 -11 -296q104 67 168 67q130 0 132 -151q3 -162 -9 -348q-4 -64 -77 -75z" />
    <glyph glyph-name="i" unicode="i" horiz-adv-x="240" 
d="M152 505q-10 -171 -10 -329q0 -88 3 -173q-49 -2 -89 -5q11 197 9 364q-1 71 -6 123q53 11 91 21zM144 609l-6 -6q-19 -4 -58 -10q8 41 19 125q29 1 87 5z" />
    <glyph glyph-name="j" unicode="j" horiz-adv-x="240" 
d="M165 507q-12 -165 -12 -400v-20q1 -17 1 -27v-46q0 -72 -15 -113q-20 -55 -73 -85q-9 -5 -66 -17q-3 12 -11 40q48 15 66 51q14 26 17 83q8 140 4 378q-1 74 -5 137q42 7 94 19zM145 610l-6 -6q-19 -4 -58 -10q8 41 19 123q29 1 87 5z" />
    <glyph glyph-name="k" unicode="k" horiz-adv-x="456" 
d="M391 502q-95 -117 -165 -207q120 -193 209 -269l-1 -3q-30 -8 -90 -28l-7 3q-91 125 -201 290q0 -183 2 -283l-87 -9q13 340 9 589q-1 42 -4 119l1 2q24 5 90 21q-5 -143 -10 -427q20 22 165 197z" />
    <glyph glyph-name="l" unicode="l" horiz-adv-x="223" 
d="M141 728q-3 -49 -5 -347q-2 -232 4 -378q-29 -1 -88 -5q9 352 5 521q-2 97 -7 188q42 9 91 21z" />
    <glyph glyph-name="m" unicode="m" horiz-adv-x="803" 
d="M39 484l6 3q19 0 42 -11q18 -9 41 -19q73 53 160 53q65 0 109 -69q86 65 173 65q128 0 128 -147l-1 -356q-33 -1 -88 -5q9 110 7 311q-1 129 -89 129q-62 0 -117 -46q3 -61 1 -195q-2 -126 2 -194q-20 -1 -91 -6q10 193 8 310q-2 137 -80 137q-54 0 -122 -57
q-2 -131 -2 -227t2 -158q-36 -1 -90 -6q9 167 6 378q-1 62 -5 110z" />
    <glyph glyph-name="n" unicode="n" horiz-adv-x="533" 
d="M434 5q-48 -2 -87 -5l-1 1q0 15 4 158q2 65 1 158q0 50 -17 83q-22 43 -67 43q-63 0 -128 -56q-2 -101 -2 -188q0 -108 3 -194l-1 -1q-49 -2 -90 -6q7 199 5 304q-2 92 -6 181q6 4 9 4q19 0 40 -9l41 -19q68 48 169 48q124 0 126 -148q1 -39 -1 -131q-1 -51 0 -132
q1 -56 3 -90z" />
    <glyph glyph-name="o" unicode="o" horiz-adv-x="498" 
d="M17 224q-4 124 48 197q59 84 178 84q100 0 153 -69q46 -62 49 -166q4 -124 -44 -197q-57 -86 -175 -86q-103 0 -157 69q-49 62 -52 168zM235 451q-138 0 -131 -235q2 -70 27 -116q33 -60 96 -60q139 0 132 216q-6 195 -124 195z" />
    <glyph glyph-name="p" unicode="p" horiz-adv-x="509" 
d="M45 495l2 2q54 -6 85 -31q70 48 146 48q82 0 131 -70q44 -62 45 -148q2 -140 -93 -217q-89 -72 -230 -67q-1 -112 1 -200l-2 -2l-88 -13q13 292 10 529q-1 81 -7 169zM248 452q-51 0 -112 -46q-5 -129 -5 -341q20 -1 32 -1q98 0 153 64q52 61 50 161q-1 64 -27 109
q-31 54 -91 54z" />
    <glyph glyph-name="q" unicode="q" horiz-adv-x="510" 
d="M451 191q-1 -13 -2 -48q-9 -13 -30 -39q2 -98 1 -296l-2 -1l-87 -14q5 122 6 250q-85 -52 -140 -52q-86 0 -137 71q-46 63 -48 153q-2 72 25 133q40 92 126 126q61 24 171 24h92l1 -1q-5 -117 -8 -326zM100 215q1 -66 30 -108q34 -48 97 -48q53 0 109 46l2 334
q-34 0 -96 -6q-146 -29 -142 -218z" />
    <glyph glyph-name="r" unicode="r" horiz-adv-x="320" 
d="M329 534q-6 -27 -18 -83q-23 -4 -52 -10q-25 -7 -49 -25q-46 -35 -62 -118q-10 -51 -10 -143q0 -78 3 -153q-26 -1 -87 -5q6 229 4 381q-1 49 -4 105q29 7 89 22l-4 -117q20 53 70 98q55 50 106 50q6 0 14 -2z" />
    <glyph glyph-name="s" unicode="s" horiz-adv-x="414" 
d="M321 424q-47 27 -96 27q-39 0 -68 -17q-36 -21 -35 -57q1 -48 60 -70l109 -40q59 -34 61 -112q2 -65 -57 -123q-68 -67 -207 -67q-35 0 -76 14l-1 2q2 19 12 72q85 -19 99 -19q49 0 87 21q50 28 49 78q-1 47 -58 70q-35 14 -106 42q-57 34 -59 106q-2 82 63 124
q55 35 141 35q48 0 87 -15l1 -2z" />
    <glyph glyph-name="t" unicode="t" horiz-adv-x="314" 
d="M169 636q-4 -33 -6 -141q35 0 104 2q-3 -26 -3 -60q-24 0 -99 -1l-3 -314q-1 -81 106 -91l-2 -33q-26 -7 -53 -7q-131 0 -131 112l-1 332h-69v4l9 47l61 13l2 116z" />
    <glyph glyph-name="u" unicode="u" horiz-adv-x="520" 
d="M431 -1l-3 -4q-20 2 -43 18l-45 30q-82 -56 -165 -56q-124 0 -126 147q-1 38 1 130q1 70 0 129q-1 61 -3 102l1 1q40 3 95 10l1 -2q0 -34 -5 -96q-6 -67 -7 -96q-2 -86 -1 -136t18 -83q23 -43 67 -43q53 0 124 62q0 15 3 91q2 50 2 91q0 96 -4 201l1 1q7 0 91 9
q-6 -178 -6 -313q0 -111 4 -193z" />
    <glyph glyph-name="v" unicode="v" horiz-adv-x="408" 
d="M392 499q-75 -223 -152 -491l-3 -3q-12 -1 -110 -11l-2 3q-77 318 -132 498q45 4 93 10l3 -2l104 -433q42 141 118 425l2 2q37 0 79 2z" />
    <glyph glyph-name="w" unicode="w" horiz-adv-x="684" 
d="M-10 496q57 2 88 5l2 -2q11 -82 43 -214l50 -214q33 138 91 414l3 3h10q30 0 102 6l2 -3q32 -144 92 -433q27 51 57 213q28 157 25 223q31 1 92 7q-8 -69 -39 -237q-28 -152 -77 -260l-3 -4q3 0 -124 -5l-3 3q-28 145 -81 434l-49 -230q-12 -54 -44 -197l-2 -2
q-63 0 -115 -2l-2 3q-43 199 -118 492z" />
    <glyph glyph-name="x" unicode="x" horiz-adv-x="410" 
d="M380 501q-52 -80 -143 -237l144 -258l-97 -9l-3 2q-32 74 -91 194q-33 -62 -97 -187l-4 -3q-19 0 -92 -6q95 144 162 256q-42 82 -128 242q55 5 96 11l2 -2q48 -117 78 -177q30 55 87 168l4 4z" />
    <glyph glyph-name="y" unicode="y" horiz-adv-x="413" 
d="M403 505q-62 -163 -162 -459q-21 -63 -75 -229l-5 -5q-52 -2 -88 -5q35 63 59 111q2 4 30 73q-12 42 -74 234q-39 121 -89 271q60 6 94 11l3 -2q32 -127 109 -395q40 128 115 389l4 3q37 1 79 3z" />
    <glyph glyph-name="z" unicode="z" horiz-adv-x="407" 
d="M359 0l-4 -3q-41 3 -93 3h-157q-25 0 -77 3l-4 2l-3 39q5 13 36 59q36 53 42 63q24 41 152 282q-70 -2 -210 -10l-1 2l7 56l2 4q103 -3 310 -2l3 -9q-77 -147 -234 -435q40 -2 120.5 5.5t120.5 5.5z" />
    <glyph glyph-name="braceleft" unicode="{" horiz-adv-x="314" 
d="M278 705q-52 -16 -73 -55q-17 -32 -19 -123v-111q-4 -73 -24 -103q-15 -22 -60 -54q47 -34 61 -57q17 -28 18 -84q-1 -51 -2 -154q1 -63 14 -91q20 -42 72 -57v-19q-86 3 -113 22q-38 27 -40 119q1 53 2 160q-1 60 -9 89q-13 45 -53 58l1 23q43 15 58 73q8 34 8 99v46
q0 10 -1 27v19q0 111 32 150q22 26 60 35q12 3 68 7v-19z" />
    <glyph glyph-name="bar" unicode="|" horiz-adv-x="204" 
d="M126 -220l-58 2l-1 951l60 -1z" />
    <glyph glyph-name="braceright" unicode="}" horiz-adv-x="319" 
d="M242 251q-43 -15 -58 -73q-8 -34 -8 -99v-46q0 -10 1 -27v-19q0 -111 -32 -150q-22 -26 -60 -35q-12 -3 -68 -7v19q51 16 72 56q17 33 20 122q0 44 1 133q1 51 22 82q13 20 61 53q-47 34 -61 57q-17 28 -18 84q2 51 2 154q-1 62 -15 91q-20 42 -72 57v19q86 -3 113 -22
q40 -28 41 -119q-1 -53 -2 -160q1 -59 9 -88q13 -46 53 -59z" />
    <glyph glyph-name="asciitilde" unicode="~" horiz-adv-x="653" 
d="M389 208q-33 0 -93.5 35t-90.5 35q-25 0 -49 -24q-9 -11 -36 -48l-25 57q48 83 111 83q33 0 98 -35t90 -35q37 0 86 68l23 -57q-56 -79 -114 -79z" />
    <glyph glyph-name="Adieresis" unicode="&#xc4;" horiz-adv-x="555" 
d="M-8 -3l110 329q60 183 103 333l4 4q71 3 125 7l3 -3q29 -126 85 -331q37 -137 93 -330l-4 -4l-93 -5l-3 3q-16 71 -50 212q-106 -1 -228 -4q-36 -124 -56 -203l-3 -4q-44 0 -86 -4zM263 598l-108 -332q89 1 195 4zM401 735l-8 -7q-19 -4 -63 -11q5 30 11 106l96 6z
M224 735l-7 -7q-20 -4 -63 -11q4 30 11 106q30 2 95 6z" />
    <glyph glyph-name="Aring" unicode="&#xc5;" horiz-adv-x="555" 
d="M-8 -3l110 329q60 183 103 333l4 4q71 3 125 7l3 -3q29 -126 85 -331q37 -137 93 -330l-4 -4l-93 -5l-3 3q-16 71 -50 212q-106 -1 -228 -4q-36 -124 -56 -203l-3 -4q-44 0 -86 -4zM263 598l-108 -332q89 1 195 4zM260 691q-37 0 -62 21t-25 58q0 40 31 64q28 23 69 23
q37 0 62.5 -22.5t25.5 -59.5q0 -40 -30 -62t-71 -22zM269 825q-21 0 -33.5 -15.5t-11.5 -37.5q1 -50 44 -50q44 0 43 49q-1 54 -42 54z" />
    <glyph glyph-name="Ccedilla" unicode="&#xc7;" horiz-adv-x="559" 
d="M333 -13q-11 -41 -29 -114l-3 -4q-37 0 -83 -2q23 46 53 123q-123 15 -188 110q-57 84 -60 214q-4 165 73 265q85 109 246 109q68 0 140 -27q2 -36 5 -106l-2 -2l-49 9l-16 51q-50 19 -80 19q-113 0 -173 -94q-54 -84 -51 -219q2 -113 50 -186q57 -85 164 -85
q79 0 166 72q-4 -53 -6 -85l-2 -3q-70 -40 -155 -45z" />
    <glyph glyph-name="Eacute" unicode="&#xc9;" horiz-adv-x="490" 
d="M381 381q-3 -26 -5 -67l-1 -1q-32 0 -104 3q-48 2 -105 2h-21q-3 -128 -3 -255h37h223q-2 -22 -4 -64l-2 -2q-28 -1 -60 -1l-287 1q9 158 10 266l1 116q2 186 -2 282l2 1q116 0 349 3q-4 -42 -6 -67l-1 -2q-25 0 -118 4q-70 3 -118 3h-13q-5 -100 -7 -222h235zM207 689
q30 83 50 154l3 3l19 -1q24 -1 81 4q-44 -62 -91 -156l-5 -3q-24 0 -57 -1z" />
    <glyph glyph-name="Ntilde" unicode="&#xd1;" horiz-adv-x="644" 
d="M534 3q-37 0 -107 -6l-5 5q-46 94 -149 288q-95 181 -149 289q0 -187 8 -576l-1 -1q-40 -1 -82 -5q9 204 9 466q0 157 -2 199l5 3q24 0 108 6l7 -5l291 -573q1 188 -6 569l1 1q34 1 81 5q-12 -426 -9 -665zM387 704q-33 0 -93.5 35t-90.5 35q-25 0 -49 -24
q-9 -11 -36 -48l-25 57q48 83 111 83q33 0 98 -35t90 -35q37 0 86 68l23 -57q-56 -79 -114 -79z" />
    <glyph glyph-name="Odieresis" unicode="&#xd6;" horiz-adv-x="672" 
d="M19 318q-3 157 64 257q78 114 229 114q135 0 206 -100q62 -87 66 -228q4 -158 -63 -258q-76 -115 -228 -115q-136 0 -208 100q-63 87 -66 230zM310 628q-200 0 -194 -303q2 -110 37 -181q47 -94 145 -94q107 0 157 109q37 82 35 202q-6 267 -180 267zM440 736l-8 -7
q-19 -4 -63 -11q5 30 11 106l96 6zM263 736l-7 -7q-20 -4 -63 -11q4 30 11 106q30 2 95 6z" />
    <glyph glyph-name="Udieresis" unicode="&#xdc;" horiz-adv-x="637" 
d="M281 -13q-85 0 -143 39q-64 44 -77 125q-3 21 -4 60q3 129 4 388q-1 30 -3 61l4 4h12q37 0 84 4q-2 -66 -8 -365q-1 -58 -1 -70q3 -184 143 -184q143 0 156 180q1 16 2 81q3 236 -1 355q20 1 79 6q-4 -102 -6 -412q-1 -133 -53 -199q-58 -73 -188 -73zM431 736l-8 -7
q-19 -4 -63 -11q5 30 11 106l96 6zM254 736l-7 -7q-20 -4 -63 -11q4 30 11 106q30 2 95 6z" />
    <glyph glyph-name="aacute" unicode="&#xe1;" 
d="M407 208l-1 -214q-22 1 -85 42q-67 -48 -121 -48q-86 0 -136 71q-43 61 -46 152q-4 131 63 209q71 81 200 81q64 0 89 -13q38 -19 40 -75q0 -11 -1 -88zM281 441q-94 5 -141 -66q-40 -61 -37 -159q2 -65 27 -108q31 -53 90 -53q53 0 103 49q4 242 3 292q0 18 -13.5 31
t-31.5 14zM214 551q30 83 50 154l3 3l19 -1q24 -1 81 4q-44 -62 -91 -156l-5 -3q-24 0 -57 -1z" />
    <glyph glyph-name="agrave" unicode="&#xe0;" 
d="M407 208l-1 -214q-22 1 -85 42q-67 -48 -121 -48q-86 0 -136 71q-43 61 -46 152q-4 131 63 209q71 81 200 81q64 0 89 -13q38 -19 40 -75q0 -11 -1 -88zM281 441q-94 5 -141 -66q-40 -61 -37 -159q2 -65 27 -108q31 -53 90 -53q53 0 103 49q4 242 3 292q0 18 -13.5 31
t-31.5 14zM215 552q-50 100 -83 159l97 -2l3 -2q6 -31 41 -150l-4 -3q-28 1 -54 -2z" />
    <glyph glyph-name="acircumflex" unicode="&#xe2;" 
d="M407 208l-1 -214q-22 1 -85 42q-67 -48 -121 -48q-86 0 -136 71q-43 61 -46 152q-4 131 63 209q71 81 200 81q64 0 89 -13q38 -19 40 -75q0 -11 -1 -88zM281 441q-94 5 -141 -66q-40 -61 -37 -159q2 -65 27 -108q31 -53 90 -53q53 0 103 49q4 242 3 292q0 18 -13.5 31
t-31.5 14zM116 552q29 50 76 151l5 4q33 2 105 5l3 -3q21 -48 61 -142l-2 -6h-31q-15 0 -40 -2l-2 3q-15 36 -45 109q-8 -19 -31 -56t-31 -57l-4 -4q-40 0 -64 -2z" />
    <glyph glyph-name="adieresis" unicode="&#xe4;" 
d="M407 208l-1 -214q-22 1 -85 42q-67 -48 -121 -48q-86 0 -136 71q-43 61 -46 152q-4 131 63 209q71 81 200 81q64 0 89 -13q38 -19 40 -75q0 -11 -1 -88zM281 441q-94 5 -141 -66q-40 -61 -37 -159q2 -65 27 -108q31 -53 90 -53q53 0 103 49q4 242 3 292q0 18 -13.5 31
t-31.5 14zM365 612l-8 -7q-19 -4 -63 -11q5 30 11 106l96 6zM188 612l-7 -7q-20 -4 -63 -11q4 30 11 106q30 2 95 6z" />
    <glyph glyph-name="atilde" unicode="&#xe3;" 
d="M407 208l-1 -214q-22 1 -85 42q-67 -48 -121 -48q-86 0 -136 71q-43 61 -46 152q-4 131 63 209q71 81 200 81q64 0 89 -13q38 -19 40 -75q0 -11 -1 -88zM281 441q-94 5 -141 -66q-40 -61 -37 -159q2 -65 27 -108q31 -53 90 -53q53 0 103 49q4 242 3 292q0 18 -13.5 31
t-31.5 14zM384 611q-40 -45 -71 -45q-23 0 -64.5 22t-64.5 22q-37 0 -72 -50h-1q3 40 4 70q5 16 28.5 30.5t41.5 14.5q22 0 66.5 -22t65.5 -22q37 0 69 50l2 -1q-2 -24 -4 -69z" />
    <glyph glyph-name="aring" unicode="&#xe5;" 
d="M407 208l-1 -214q-22 1 -85 42q-67 -48 -121 -48q-86 0 -136 71q-43 61 -46 152q-4 131 63 209q71 81 200 81q64 0 89 -13q38 -19 40 -75q0 -11 -1 -88zM281 441q-94 5 -141 -66q-40 -61 -37 -159q2 -65 27 -108q31 -53 90 -53q53 0 103 49q4 242 3 292q0 18 -13.5 31
t-31.5 14zM246 554q-37 0 -62 21t-25 58q0 40 31 64q28 23 69 23q37 0 62.5 -22.5t25.5 -59.5q0 -40 -30 -62t-71 -22zM255 688q-21 0 -33.5 -15.5t-11.5 -37.5q1 -50 44 -50q44 0 43 49q-1 54 -42 54z" />
    <glyph glyph-name="ccedilla" unicode="&#xe7;" horiz-adv-x="405" 
d="M245 -10q-11 -43 -30 -119l-3 -4q-36 0 -83 -3q24 48 55 128q-83 14 -129 84q-39 61 -42 151q-3 113 62 193q68 86 179 86q61 0 104 -18q-3 -38 -5 -67l-3 -1q-38 26 -85 26q-79 0 -127 -71q-41 -62 -39 -145q2 -74 34 -122q37 -58 107 -58q59 0 117 52q-4 -47 -5 -75
q-33 -30 -107 -37z" />
    <glyph glyph-name="eacute" unicode="&#xe9;" horiz-adv-x="474" 
d="M393 316q-95 -28 -286 -83q11 -184 151 -184q74 0 144 63q-3 -35 -6 -80q-17 -20 -71 -33q-45 -11 -79 -11q-105 0 -165 65q-57 62 -60 169q-3 117 46 197q58 95 169 95q70 0 121 -44q46 -41 67 -111q-8 -16 -31 -43zM231 461q-93 0 -129 -163l236 63q-51 100 -107 100z
M214 551q30 83 50 154l3 3l19 -1q24 -1 81 4q-44 -62 -91 -156l-5 -3q-24 0 -57 -1z" />
    <glyph glyph-name="egrave" unicode="&#xe8;" horiz-adv-x="474" 
d="M393 316q-95 -28 -286 -83q11 -184 151 -184q74 0 144 63q-3 -35 -6 -80q-17 -20 -71 -33q-45 -11 -79 -11q-105 0 -165 65q-57 62 -60 169q-3 117 46 197q58 95 169 95q70 0 121 -44q46 -41 67 -111q-8 -16 -31 -43zM231 461q-93 0 -129 -163l236 63q-51 100 -107 100z
M215 552q-50 100 -83 159l97 -2l3 -2q6 -31 41 -150l-4 -3q-28 1 -54 -2z" />
    <glyph glyph-name="ecircumflex" unicode="&#xea;" horiz-adv-x="474" 
d="M393 316q-95 -28 -286 -83q11 -184 151 -184q74 0 144 63q-3 -35 -6 -80q-17 -20 -71 -33q-45 -11 -79 -11q-105 0 -165 65q-57 62 -60 169q-3 117 46 197q58 95 169 95q70 0 121 -44q46 -41 67 -111q-8 -16 -31 -43zM231 461q-93 0 -129 -163l236 63q-51 100 -107 100z
M101 552q29 50 76 151l5 4q33 2 105 5l3 -3q21 -48 61 -142l-2 -6h-31q-15 0 -40 -2l-2 3q-15 36 -45 109q-8 -19 -31 -56t-31 -57l-4 -4q-40 0 -64 -2z" />
    <glyph glyph-name="edieresis" unicode="&#xeb;" horiz-adv-x="474" 
d="M393 316q-95 -28 -286 -83q11 -184 151 -184q74 0 144 63q-3 -35 -6 -80q-17 -20 -71 -33q-45 -11 -79 -11q-105 0 -165 65q-57 62 -60 169q-3 117 46 197q58 95 169 95q70 0 121 -44q46 -41 67 -111q-8 -16 -31 -43zM231 461q-93 0 -129 -163l236 63q-51 100 -107 100z
M363 612l-8 -7q-19 -4 -63 -11q5 30 11 106l96 6zM186 612l-7 -7q-20 -4 -63 -11q4 30 11 106q30 2 95 6z" />
    <glyph glyph-name="iacute" unicode="&#xed;" horiz-adv-x="223" 
d="M55 -4q13 173 10 380q-1 51 -6 104q42 8 95 22l2 -2q-10 -176 -10 -331q0 -87 3 -167q-53 -2 -94 -6zM67 551q30 83 50 154l3 3l19 -1q24 -1 81 4q-44 -62 -91 -156l-5 -3q-24 0 -57 -1z" />
    <glyph glyph-name="igrave" unicode="&#xec;" horiz-adv-x="223" 
d="M55 -4q13 173 10 380q-1 51 -6 104q42 8 95 22l2 -2q-10 -176 -10 -331q0 -87 3 -167q-53 -2 -94 -6zM91 552q-50 100 -83 159l97 -2l3 -2q6 -31 41 -150l-4 -3q-28 1 -54 -2z" />
    <glyph glyph-name="icircumflex" unicode="&#xee;" horiz-adv-x="223" 
d="M55 -4q13 173 10 380q-1 51 -6 104q42 8 95 22l2 -2q-10 -176 -10 -331q0 -87 3 -167q-53 -2 -94 -6zM-14 552q29 50 76 151l5 4q33 2 105 5l3 -3q21 -48 61 -142l-2 -6h-31q-15 0 -40 -2l-2 3q-15 36 -45 109q-8 -19 -31 -56t-31 -57l-4 -4q-40 0 -64 -2z" />
    <glyph glyph-name="idieresis" unicode="&#xef;" horiz-adv-x="223" 
d="M55 -4q13 173 10 380q-1 51 -6 104q42 8 95 22l2 -2q-10 -176 -10 -331q0 -87 3 -167q-53 -2 -94 -6zM240 612l-8 -7q-19 -4 -63 -11q5 30 11 106l96 6zM63 612l-7 -7q-20 -4 -63 -11q4 30 11 106q30 2 95 6z" />
    <glyph glyph-name="ntilde" unicode="&#xf1;" horiz-adv-x="523" 
d="M434 5q-48 -2 -87 -5l-1 1q0 15 4 158q2 65 1 158q0 50 -17 83q-22 43 -67 43q-63 0 -128 -56q-2 -101 -2 -188q0 -108 3 -194l-1 -1q-49 -2 -90 -6q7 199 5 304q-2 92 -6 181q6 4 9 4q19 0 40 -9l41 -19q68 48 169 48q124 0 126 -148q1 -39 -1 -131q-1 -51 0 -132
q1 -56 3 -90zM376 611q-40 -45 -71 -45q-23 0 -64.5 22t-64.5 22q-37 0 -72 -50h-1q3 40 4 70q5 16 28.5 30.5t41.5 14.5q22 0 66.5 -22t65.5 -22q37 0 69 50l2 -1q-2 -24 -4 -69z" />
    <glyph glyph-name="oacute" unicode="&#xf3;" horiz-adv-x="498" 
d="M17 224q-4 124 48 197q59 84 178 84q100 0 153 -69q46 -62 49 -166q4 -124 -44 -197q-57 -86 -175 -86q-103 0 -157 69q-49 62 -52 168zM235 451q-138 0 -131 -235q2 -70 27 -116q33 -60 96 -60q139 0 132 216q-6 195 -124 195zM214 551q30 83 50 154l3 3l19 -1
q24 -1 81 4q-44 -62 -91 -156l-5 -3q-24 0 -57 -1z" />
    <glyph glyph-name="ograve" unicode="&#xf2;" horiz-adv-x="498" 
d="M17 224q-4 124 48 197q59 84 178 84q100 0 153 -69q46 -62 49 -166q4 -124 -44 -197q-57 -86 -175 -86q-103 0 -157 69q-49 62 -52 168zM235 451q-138 0 -131 -235q2 -70 27 -116q33 -60 96 -60q139 0 132 216q-6 195 -124 195zM215 552q-50 100 -83 159l97 -2l3 -2
q6 -31 41 -150l-4 -3q-28 1 -54 -2z" />
    <glyph glyph-name="ocircumflex" unicode="&#xf4;" horiz-adv-x="498" 
d="M17 224q-4 124 48 197q59 84 178 84q100 0 153 -69q46 -62 49 -166q4 -124 -44 -197q-57 -86 -175 -86q-103 0 -157 69q-49 62 -52 168zM235 451q-138 0 -131 -235q2 -70 27 -116q33 -60 96 -60q139 0 132 216q-6 195 -124 195zM101 552q29 50 76 151l5 4q33 2 105 5
l3 -3q21 -48 61 -142l-2 -6h-31q-15 0 -40 -2l-2 3q-15 36 -45 109q-8 -19 -31 -56t-31 -57l-4 -4q-40 0 -64 -2z" />
    <glyph glyph-name="odieresis" unicode="&#xf6;" horiz-adv-x="498" 
d="M17 224q-4 124 48 197q59 84 178 84q100 0 153 -69q46 -62 49 -166q4 -124 -44 -197q-57 -86 -175 -86q-103 0 -157 69q-49 62 -52 168zM235 451q-138 0 -131 -235q2 -70 27 -116q33 -60 96 -60q139 0 132 216q-6 195 -124 195zM365 612l-8 -7q-19 -4 -63 -11
q5 30 11 106l96 6zM188 612l-7 -7q-20 -4 -63 -11q4 30 11 106q30 2 95 6z" />
    <glyph glyph-name="otilde" unicode="&#xf5;" horiz-adv-x="498" 
d="M17 224q-4 124 48 197q59 84 178 84q100 0 153 -69q46 -62 49 -166q4 -124 -44 -197q-57 -86 -175 -86q-103 0 -157 69q-49 62 -52 168zM235 451q-138 0 -131 -235q2 -70 27 -116q33 -60 96 -60q139 0 132 216q-6 195 -124 195zM381 611q-40 -45 -71 -45q-23 0 -64.5 22
t-64.5 22q-37 0 -72 -50h-1q3 40 4 70q5 16 28.5 30.5t41.5 14.5q22 0 66.5 -22t65.5 -22q37 0 69 50l2 -1q-2 -24 -4 -69z" />
    <glyph glyph-name="uacute" unicode="&#xfa;" horiz-adv-x="520" 
d="M431 -1l-3 -4q-20 2 -43 18l-45 30q-82 -56 -165 -56q-124 0 -126 147q-1 38 1 130q1 70 0 129q-1 61 -3 102l1 1q40 3 95 10l1 -2q0 -34 -5 -96q-6 -67 -7 -96q-2 -86 -1 -136t18 -83q23 -43 67 -43q53 0 124 62q0 15 3 91q2 50 2 91q0 96 -4 201l1 1q7 0 91 9
q-6 -178 -6 -313q0 -111 4 -193zM214 551q30 83 50 154l3 3l19 -1q24 -1 81 4q-44 -62 -91 -156l-5 -3q-24 0 -57 -1z" />
    <glyph glyph-name="ugrave" unicode="&#xf9;" horiz-adv-x="520" 
d="M431 -1l-3 -4q-20 2 -43 18l-45 30q-82 -56 -165 -56q-124 0 -126 147q-1 38 1 130q1 70 0 129q-1 61 -3 102l1 1q40 3 95 10l1 -2q0 -34 -5 -96q-6 -67 -7 -96q-2 -86 -1 -136t18 -83q23 -43 67 -43q53 0 124 62q0 15 3 91q2 50 2 91q0 96 -4 201l1 1q7 0 91 9
q-6 -178 -6 -313q0 -111 4 -193zM225 552q-50 100 -83 159l97 -2l3 -2q6 -31 41 -150l-4 -3q-28 1 -54 -2z" />
    <glyph glyph-name="ucircumflex" unicode="&#xfb;" horiz-adv-x="520" 
d="M431 -1l-3 -4q-20 2 -43 18l-45 30q-82 -56 -165 -56q-124 0 -126 147q-1 38 1 130q1 70 0 129q-1 61 -3 102l1 1q40 3 95 10l1 -2q0 -34 -5 -96q-6 -67 -7 -96q-2 -86 -1 -136t18 -83q23 -43 67 -43q53 0 124 62q0 15 3 91q2 50 2 91q0 96 -4 201l1 1q7 0 91 9
q-6 -178 -6 -313q0 -111 4 -193zM116 552q29 50 76 151l5 4q33 2 105 5l3 -3q21 -48 61 -142l-2 -6h-31q-15 0 -40 -2l-2 3q-15 36 -45 109q-8 -19 -31 -56t-31 -57l-4 -4q-40 0 -64 -2z" />
    <glyph glyph-name="udieresis" unicode="&#xfc;" horiz-adv-x="520" 
d="M431 -1l-3 -4q-20 2 -43 18l-45 30q-82 -56 -165 -56q-124 0 -126 147q-1 38 1 130q1 70 0 129q-1 61 -3 102l1 1q40 3 95 10l1 -2q0 -34 -5 -96q-6 -67 -7 -96q-2 -86 -1 -136t18 -83q23 -43 67 -43q53 0 124 62q0 15 3 91q2 50 2 91q0 96 -4 201l1 1q7 0 91 9
q-6 -178 -6 -313q0 -111 4 -193zM370 612l-8 -7q-19 -4 -63 -11q5 30 11 106l96 6zM193 612l-7 -7q-20 -4 -63 -11q4 30 11 106q30 2 95 6z" />
    <glyph glyph-name="dagger" unicode="&#x2020;" horiz-adv-x="428" 
d="M10 425q3 30 4 58l2 2q64 0 148 2q0 148 -6 235l2 2q41 1 81 3q-4 -75 -4 -240l151 6q-4 -32 -6 -60l-1 -1h-145q-6 -221 -6 -406q0 -102 2 -193q-20 0 -86 -3q12 207 15 601q-91 -3 -151 -6z" />
    <glyph glyph-name="degree" unicode="&#xb0;" horiz-adv-x="319" 
d="M124 414q-59 0 -96.5 42.5t-38.5 102.5q-1 62 39.5 112.5t101.5 50.5q59 0 96.5 -42t38.5 -102q1 -63 -38 -112q-41 -52 -103 -52zM129 661q-33 0 -55.5 -30t-22.5 -64q0 -37 19 -63q22 -29 57 -29q33 0 56 32q20 29 20 63q0 36 -20 63.5t-54 27.5z" />
    <glyph glyph-name="cent" unicode="&#xa2;" horiz-adv-x="428" 
d="M378 476l-10 -66l-4 -2q-20 20 -60 40l-97 -398q18 -1 33 -1q72 0 132 50q-3 -28 -5 -72l-2 -2q-64 -35 -128 -35q-12 0 -41 3q-10 -46 -17 -82l-2 -2h-44q11 35 27 92q-62 30 -95 98q-29 60 -30 135q-2 108 50 183q59 84 163 88q1 0 29 -1q4 25 14 74l1 2q24 -1 44 0
q-8 -32 -21 -79q43 -14 63 -25zM113 246q2 -96 59 -190l94 401q-156 -39 -153 -211z" />
    <glyph glyph-name="sterling" unicode="&#xa3;" horiz-adv-x="430" 
d="M10 -7q41 129 48 307l-64 -3q1 16 2 50l1 1l60 -1l-1 97q5 212 203 212q66 0 126 -25l1 -1q-5 -36 -6 -62l-3 -2q-59 32 -115 32q-89 0 -113 -81q-12 -40 -10 -168q90 2 197 8q-3 -22 -5 -50l-1 -3q-63 0 -191 -3q-3 -121 -39 -247q93 1 279 10l1 -1q-2 -32 -3 -60l-1 -2
q-122 0 -366 -8z" />
    <glyph glyph-name="section" unicode="&#xa7;" horiz-adv-x="448" 
d="M306 139q66 -65 67 -118q1 -78 -59 -120q-52 -37 -133 -37q-75 0 -143 37q2 35 2 66l3 2q66 -52 135 -52q45 0 77 20q36 24 36 67q-1 56 -72 95q-44 23 -133 70q-72 49 -73 123q-1 79 96 152q-27 29 -38 47q-17 29 -18 59q-1 74 53 115q49 37 125 37q61 0 127 -26l1 -1
q-4 -37 -5 -63l-2 -1q-59 36 -118 36q-41 0 -71 -20q-34 -22 -34 -61q1 -51 71 -89l129 -69q70 -47 71 -116q1 -50 -28 -90q-20 -28 -66 -63zM149 419q-69 -49 -68 -105q0 -39 34 -68q12 -10 64 -39l83 -46q69 50 68 108q0 48 -72 91q-20 12 -109 59z" />
    <glyph glyph-name="bullet" unicode="&#x2022;" horiz-adv-x="298" 
d="M52 337q0 44 26.5 76.5t69.5 32.5t69.5 -34.5t26.5 -78.5q0 -43 -26.5 -76t-69.5 -33t-70 36q-26 33 -26 77z" />
    <glyph glyph-name="paragraph" unicode="&#xb6;" horiz-adv-x="597" 
d="M427 639l-11 -798l-40 -1l11 798l-140 -2l-12 -799l-39 -1l7 472q-63 14 -100 59.5t-38 110.5q-1 87 54 139q52 49 140 51l198 4v-32z" />
    <glyph glyph-name="germandbls" unicode="&#xdf;" horiz-adv-x="524" 
d="M207 8l1 62l1 1q41 -22 74 -22q39 0 66.5 24t27.5 63q0 41 -41 89q-64 62 -68 66q-48 52 -48 74q0 13 28 49q36 46 51 73q28 51 27 99q-1 46 -20 75q-23 36 -66 36q-77 0 -100 -80q-10 -35 -13 -155q-8 -302 -1 -464q-50 -2 -89 -6q6 103 12 511q1 88 14 127q18 56 74 91
q46 29 110 29q70 0 114.5 -37t45.5 -106q1 -50 -27 -95q-13 -21 -53 -67q-28 -33 -28 -50q1 -26 41 -64q65 -62 74 -72q40 -48 41 -103q1 -75 -45 -119t-121 -44q-10 0 -43 5q-36 5 -39 10z" />
    <glyph glyph-name="registered" unicode="&#xae;" horiz-adv-x="831" 
d="M396 -7q-141 0 -237.5 95t-98.5 236q-3 146 95 246.5t244 100.5q142 0 238 -95.5t99 -238.5q3 -144 -96.5 -244t-243.5 -100zM89 325q2 -128 91 -218t217 -90q133 0 222 93t87 226q-2 130 -89.5 220.5t-216.5 90.5q-133 0 -223 -94t-88 -228zM477 122q-12 20 -20.5 75.5
t-18.5 76.5q-18 36 -58 36q8 0 -44 -1v-190l-85 -2v429l166 3q145 0 147 -108q1 -60 -78 -103q44 -37 52 -88q13 -81 33 -127zM416 487q-9 0 -79 -1v-113q80 2 90 4q53 11 52 57q-1 53 -63 53z" />
    <glyph glyph-name="copyright" unicode="&#xa9;" horiz-adv-x="831" 
d="M396 -7q-141 0 -237.5 95.5t-98.5 236.5q-3 146 96 246t245 100q142 0 237 -96t98 -238q3 -146 -95.5 -245t-244.5 -99zM89 325q2 -129 91.5 -218.5t218.5 -89.5q132 0 221 94t87 226q-2 131 -89 220.5t-217 89.5q-133 0 -223.5 -94t-88.5 -228zM529 421q-61 65 -126 65
q-63 0 -103 -46t-39 -110q1 -63 42 -105.5t104 -42.5q65 0 124 67l59 -50q-78 -91 -188 -91q-96 0 -159.5 62.5t-64.5 158.5q-2 98 63.5 164.5t163.5 66.5q103 0 179 -83z" />
    <glyph glyph-name="trademark" unicode="&#x2122;" horiz-adv-x="618" 
d="M524 356l-51 -1l6 242l-75 -243l-49 -1l-65 237l-2 -238l-51 -1l6 305l71 1l69 -241l75 244l71 1zM207 627l-82 -3l-4 -266l-53 -1l4 266l-95 -2l1 39l230 4z" />
    <glyph glyph-name="acute" unicode="&#xb4;" horiz-adv-x="527" 
d="M214 551q30 83 50 154l3 3l19 -1q24 -1 81 4q-44 -62 -91 -156l-5 -3q-24 0 -57 -1z" />
    <glyph glyph-name="dieresis" unicode="&#xa8;" horiz-adv-x="264" 
d="M228 612l-8 -7q-19 -4 -63 -11q5 30 11 106l96 6zM51 612l-7 -7q-20 -4 -63 -11q4 30 11 106q30 2 95 6z" />
    <glyph glyph-name="AE" unicode="&#xc6;" horiz-adv-x="767" 
d="M-32 -6q33 91 127 333q81 209 121 335l5 5l249 -1q155 0 221 4q-1 -10 -5 -70l-1 -2q-23 1 -107 5q-67 3 -108 3q-25 0 -53 -1q-1 -33 -5 -226q24 1 50 1q4 0 101 -2q56 -1 101 0q-1 -9 -4 -68l-1 -2q-19 1 -103 5q-63 3 -103 3h-43l-2 -247q93 -2 279 2q-1 -22 -5 -67
l-2 -3q-45 -1 -84 -1l-284 2q2 66 7 203q-98 -1 -188 -4q-23 -64 -67 -198l-3 -4q-53 -2 -93 -5zM275 605l-123 -342q85 0 168 4q5 190 6 339z" />
    <glyph glyph-name="Oslash" unicode="&#xd8;" horiz-adv-x="672" 
d="M624 645l-83 -85q43 -96 45 -205q3 -158 -64 -257q-77 -115 -228 -115q-121 0 -199 80q-24 -27 -70 -82h-5q-10 12 -31 34q24 20 79 82q-47 97 -48 197q-2 163 63 267q77 122 232 122q120 0 203 -88q46 51 74 83l4 1l28 -31v-3zM314 626q-106 0 -159 -105
q-43 -86 -41 -217q1 -61 16 -138l332 367q-61 93 -148 93zM481 490l-332 -365q62 -85 146 -85q108 0 160 108q41 85 39 221q0 42 -13 121z" />
    <glyph glyph-name="plusminus" unicode="&#xb1;" horiz-adv-x="599" 
d="M524 373l-223 -4l-2 -238l-59 -1l3 237l-225 2l1 56l224 -1l4 237l59 1l-3 -237l222 4zM519 3l-507 -1l1 56l507 2z" />
    <glyph glyph-name="yen" unicode="&#xa5;" horiz-adv-x="484" 
d="M453 649q-81 -154 -147 -283l80 3q-2 -18 -4 -48l-1 -1h-22q-11 1 -76 -1q-11 -22 -22 -46q0 -11 -3 -58q42 1 126 5q-2 -20 -4 -49l-1 -1h-21q-17 0 -99 -1q0 -121 1 -169l-1 -1q-38 0 -93 -4q1 15 5 172q-18 0 -122 -3q1 11 4 46l2 2l118 2l-1 49q-8 18 -25 54l-97 -3
q2 15 5 46l2 2h69q-79 167 -136 274q32 2 96 9l4 -3q53 -125 135 -304q96 188 144 302l5 4q42 1 79 5z" />
    <glyph glyph-name="mu" unicode="&#xb5;" horiz-adv-x="522" 
d="M441 7q-40 -2 -87 -5l-6 34q-51 -45 -108 -45q-37 0 -101 51q0 -200 2 -250l-1 -1l-90 -5q10 189 10 531q0 108 -2 168q36 1 89 7q0 -10 -5 -147q-3 -81 -2 -148q2 -147 101 -147q111 0 115 134q4 113 2 195q0 30 -3 112l1 2q50 2 89 5q-7 -170 -7 -316q0 -92 3 -175z
" />
    <glyph glyph-name="mu" unicode="&#x3bc;" horiz-adv-x="522" 
d="M441 7q-40 -2 -87 -5l-6 34q-51 -45 -108 -45q-37 0 -101 51q0 -200 2 -250l-1 -1l-90 -5q10 189 10 531q0 108 -2 168q36 1 89 7q0 -10 -5 -147q-3 -81 -2 -148q2 -147 101 -147q111 0 115 134q4 113 2 195q0 30 -3 112l1 2q50 2 89 5q-7 -170 -7 -316q0 -92 3 -175z
" />
    <glyph glyph-name="ordfeminine" unicode="&#xaa;" horiz-adv-x="301" 
d="M230 351q-29 -1 -58 -4l-12 17q-41 -24 -74 -24q-41 0 -64 28t-24 70q-1 65 65 97q30 15 114 32q-6 76 -52 76q-39 0 -90 -27l-2 1q2 20 2 37q15 11 52 19q32 7 56 7q88 0 91 -126q1 -39 -1 -101q-2 -86 -2 -101zM55 445q1 -66 51 -66q32 0 66 29l3 125q-55 -11 -77 -22
q-44 -22 -43 -66z" />
    <glyph glyph-name="ordmasculine" unicode="&#xba;" horiz-adv-x="337" 
d="M133 339q-129 0 -132 158q-1 80 34 128q39 54 116 54q124 0 127 -155q1 -80 -31 -129q-37 -56 -114 -56zM142 644q-86 0 -84 -146q2 -125 79 -125q85 0 83 147q-2 124 -78 124z" />
    <glyph glyph-name="ae" unicode="&#xe6;" horiz-adv-x="765" 
d="M695 293l-33 -23q-169 -25 -286 -32q6 -189 144 -189q73 0 151 62l5 -1q-5 -40 -8 -76l-2 -4q-70 -44 -159 -44q-103 0 -171 73q-81 -80 -173 -80q-67 0 -113 40t-47 107q-2 105 107 144q58 21 184 26v30q-1 55 -17 81q-21 33 -72 33q-61 0 -146 -45l-4 3q3 30 4 63l3 3
q98 37 167 37q77 0 126 -69q77 75 162 75q82 0 131 -58q46 -54 47 -137q1 -8 0 -19zM504 452q-91 0 -131 -155q136 12 234 24q-6 61 -24 90q-25 41 -79 41zM293 235q-202 -2 -201 -102q1 -41 25 -64t65 -23q63 0 127 70q-12 45 -16 119z" />
    <glyph glyph-name="oslash" unicode="&#xf8;" horiz-adv-x="522" 
d="M-18 20l73 70q-25 72 -26 147q-2 117 53 189q61 79 174 79q84 0 151 -62q34 33 60 62h4q14 -17 25 -31l-1 -5q-23 -19 -67 -60q27 -67 28 -145q2 -124 -47 -195q-57 -83 -176 -83q-92 0 -157 71q-37 -38 -62 -67h-7zM253 456q-143 0 -139 -246q0 -28 2 -60l237 239
q-46 67 -100 67zM367 348l-238 -238q38 -76 109 -76q138 0 135 223q0 25 -6 91z" />
    <glyph glyph-name="questiondown" unicode="&#xbf;" horiz-adv-x="375" 
d="M239 638l-3 -4q-51 -2 -93 -5l-3 3q0 15 1 91l2 2l95 7l2 -2q-1 -21 -1 -92zM322 42l-3 -3q-58 -42 -136 -42q-77 0 -123 45.5t-47 123.5q-1 76 59 180q67 116 75 176l2 3q34 0 75 3q-7 -53 -21 -86q-11 -27 -42 -80.5t-43 -83.5q-19 -49 -19 -93q1 -54 30 -87.5
t82 -33.5t117 55z" />
    <glyph glyph-name="exclamdown" unicode="&#xa1;" horiz-adv-x="245" 
d="M139 639l-3 -3q-52 -2 -93 -6l-3 4q1 52 1 90l2 3l96 6l1 -1q-2 -45 -1 -93zM128 3q-51 -1 -103 -5q25 272 29 517l69 6q-1 -87 -1 -166q0 -198 7 -351z" />
    <glyph glyph-name="logicalnot" unicode="&#xac;" horiz-adv-x="596" 
d="M569 1l-60 -1l4 258l-520 -12l1 57l580 13z" />
    <glyph glyph-name="florin" unicode="&#x192;" horiz-adv-x="338" 
d="M312 592l-3 -2q-18 6 -36 6q-52 0 -66 -67q-4 -18 -16 -136q30 0 90 3q-3 -12 -10 -53l-3 -4q-28 1 -81 1q-15 -182 -38 -395q-7 -70 -39 -101q-33 -34 -101 -34q-26 0 -56 6q4 24 7 58l3 2q22 -5 36 -5q50 0 68 75q4 16 13 115l26 278l-73 -3q4 20 8 55l3 3q24 -2 48 -2
h19q3 42 11 126q17 139 138 139q27 0 60 -6q-4 -19 -8 -59z" />
    <glyph glyph-name="guillemotleft" unicode="&#xab;" horiz-adv-x="391" 
d="M336 447q-37 -66 -89 -181l90 -190l-65 -1l-2 2q-31 73 -87 181v2q28 61 83 183l4 4h66zM174 444l-91 -186q28 -64 90 -187q-39 0 -68 -2l-3 2q-25 62 -83 179v2q54 103 89 189l4 3h62z" />
    <glyph glyph-name="guillemotright" unicode="&#xbb;" horiz-adv-x="391" 
d="M190 445q40 0 68 2l4 -3l38 -92q21 -50 44 -87q-51 -99 -89 -190l-4 -3h-62q30 61 90 186q-23 54 -89 187zM25 439q39 1 65 3l4 -4q38 -86 87 -180v-2q-28 -54 -84 -184l-4 -3q-23 1 -66 0q36 65 88 181q-5 13 -90 189z" />
    <glyph glyph-name="ellipsis" unicode="&#x2026;" horiz-adv-x="894" 
d="M721 3q-43 0 -44 45q0 19 14.5 35t32.5 16q41 0 42 -46q0 -19 -13 -34.5t-32 -15.5zM424 -8q-41 0 -42 43q0 21 13 37t33 16q40 0 41 -41q1 -55 -45 -55zM174 32q0 -21 -13.5 -36t-34.5 -15q-39 0 -40 45q0 22 13.5 36.5t34.5 14.5q39 0 40 -45z" />
    <glyph glyph-name="Agrave" unicode="&#xc0;" horiz-adv-x="555" 
d="M-8 -3l110 329q60 183 103 333l4 4q71 3 125 7l3 -3q29 -126 85 -331q37 -137 93 -330l-4 -4l-93 -5l-3 3q-16 71 -50 212q-106 -1 -228 -4q-36 -124 -56 -203l-3 -4q-44 0 -86 -4zM263 598l-108 -332q89 1 195 4zM251 690q-50 100 -83 159l97 -2l3 -2q6 -31 41 -150
l-4 -3q-28 1 -54 -2z" />
    <glyph glyph-name="Atilde" unicode="&#xc3;" horiz-adv-x="555" 
d="M-8 -3l110 329q60 183 103 333l4 4q71 3 125 7l3 -3q29 -126 85 -331q37 -137 93 -330l-4 -4l-93 -5l-3 3q-16 71 -50 212q-106 -1 -228 -4q-36 -124 -56 -203l-3 -4q-44 0 -86 -4zM263 598l-108 -332q89 1 195 4zM413 746q-40 -45 -71 -45q-23 0 -64.5 22t-64.5 22
q-37 0 -72 -50h-1q3 40 4 70q5 16 28.5 30.5t41.5 14.5q22 0 66.5 -22t65.5 -22q37 0 69 50l2 -1q-2 -24 -4 -69z" />
    <glyph glyph-name="Otilde" unicode="&#xd5;" horiz-adv-x="672" 
d="M19 318q-3 157 64 257q78 114 229 114q135 0 206 -100q62 -87 66 -228q4 -158 -63 -258q-76 -115 -228 -115q-136 0 -208 100q-63 87 -66 230zM310 628q-200 0 -194 -303q2 -110 37 -181q47 -94 145 -94q107 0 157 109q37 82 35 202q-6 267 -180 267zM443 767
q-40 -45 -71 -45q-23 0 -64.5 22t-64.5 22q-37 0 -72 -50h-1q3 40 4 70q5 16 28.5 30.5t41.5 14.5q22 0 66.5 -22t65.5 -22q37 0 69 50l2 -1q-2 -24 -4 -69z" />
    <glyph glyph-name="OE" unicode="&#x152;" horiz-adv-x="857" 
d="M773 604l-3 -3l-264 4q-4 -111 -6 -224h33q73 0 217 3q-1 -23 -4 -68l-2 -3q-7 0 -108 2q-51 1 -107 1h-31q-3 -118 -3 -250q30 1 58 1q24 0 71 -1.5t71 -1.5q36 0 76 3l2 -2q-4 -31 -5 -66l-2 -3h-21q-30 0 -88.5 2t-88.5 2q-42 0 -125.5 -2.5t-125.5 -2.5
q-306 0 -306 318v19q0 264 216 325q57 16 216 16h94q25 0 81 -1t80 -1q26 0 81 2zM107 313q3 -152 85 -215q48 -37 145 -37q27 0 69 3q11 315 9 542q-34 1 -51 1q-100 0 -154 -34q-58 -38 -85 -128q-19 -65 -18 -132z" />
    <glyph glyph-name="oe" unicode="&#x153;" horiz-adv-x="820" 
d="M746 311l-32 -33l-285 -44q1 -28 9 -83q28 -102 135 -102q74 0 150 61l3 -2q-6 -48 -8 -77l-3 -3q-70 -41 -151 -41q-104 0 -172 86q-78 -93 -179 -93t-153 71q-45 62 -47 168q-2 120 48 194q58 86 172 86q54 0 94 -23q34 -20 71 -67q80 97 170 97q95 0 149 -85
q30 -47 31 -86q0 -2 -2 -24zM562 451q-100 0 -135 -159l240 37q-23 122 -105 122zM236 441q-137 0 -134 -220q3 -183 122 -183q129 0 126 223q-3 180 -114 180z" />
    <glyph glyph-name="endash" unicode="&#x2013;" horiz-adv-x="561" 
d="M491 314q-1 -12 -4 -88q-40 -1 -113 0l-112 1q-101 0 -220 -5q2 29 4 87l2 2l247 -3q94 -1 196 6z" />
    <glyph glyph-name="emdash" unicode="&#x2014;" horiz-adv-x="653" 
d="M592 291q-2 -14 -6 -65l-2 -2q-73 -3 -288 0q-178 2 -287 -6q2 22 5 65q53 2 289 0q174 -1 289 8z" />
    <glyph glyph-name="quotedblleft" unicode="&#x201c;" horiz-adv-x="320" 
d="M276 732q-36 -150 -51 -248l-1 -2q-59 -4 -94 -8q47 122 84 249l3 4zM139 729q-33 -134 -51 -248l-3 -3q-54 -4 -92 -9q53 146 83 252l3 4q35 2 60 4z" />
    <glyph glyph-name="quotedblright" unicode="&#x201d;" horiz-adv-x="336" 
d="M291 732q-59 -163 -83 -253l-3 -3q-34 -2 -60 -4q32 133 51 248l3 3q53 4 92 9zM154 727q-44 -112 -83 -249l-4 -4l-59 -5q19 82 51 248l1 2q57 4 94 8z" />
    <glyph glyph-name="quoteleft" unicode="&#x2018;" horiz-adv-x="186" 
d="M148 733q-40 -164 -51 -249l-2 -3q-41 -2 -94 -8q36 93 84 251l3 4q36 2 60 5z" />
    <glyph glyph-name="quoteright" unicode="&#x2019;" horiz-adv-x="181" 
d="M146 732q-37 -94 -83 -249l-4 -5l-60 -5q39 163 51 248l2 3q57 4 94 8z" />
    <glyph glyph-name="divide" unicode="&#xf7;" horiz-adv-x="598" 
d="M281 368q-41 0 -42 44q0 20 13 33.5t34 13.5q41 0 42 -44q0 -20 -13.5 -33.5t-33.5 -13.5zM568 240l-581 -1l1 57l582 1zM273 76q-41 0 -42 44q0 20 13 33.5t33 13.5q41 0 42 -44q0 -19 -13.5 -33t-32.5 -14z" />
    <glyph glyph-name="ydieresis" unicode="&#xff;" horiz-adv-x="407" 
d="M346 603l-2 -3q-48 -1 -91 -3l-1 2q1 52 1 86l3 2h23q23 0 66 3l2 -2q-1 -45 -1 -85zM145 597l-2 -2q-39 0 -91 -4l-1 2q2 44 1 86l3 4q37 0 89 3l2 -2q-2 -39 -1 -87zM400 495q-70 -187 -162 -459q-33 -97 -75 -237l-5 -5l-88 -5q33 54 89 192q-17 56 -65 206
q-24 73 -98 294q60 6 94 11l3 -3q25 -101 109 -389q40 129 115 389l3 3q38 1 80 3z" />
    <glyph glyph-name="Ydieresis" unicode="&#x178;" horiz-adv-x="485" 
d="M369 750l-2 -2q-39 1 -94 0l-2 1q2 52 1 83l3 3h43q9 0 26 1t26 1l1 -1q-1 -33 -2 -86zM160 747l-1 -3l-93 -1l-2 1l2 85l2 2q47 0 93 3q0 -15 -1 -87zM453 674q-68 -129 -199 -390q-3 -67 -3 -145q0 -66 2 -139l-1 -1q-54 0 -95 -3q6 103 6 269v9q-108 235 -186 387
q5 1 98 9l5 -3q45 -105 138 -315q94 191 148 313l5 5q35 0 82 4z" />
    <glyph glyph-name="fraction" unicode="&#x2044;" horiz-adv-x="97" 
d="M210 676q-149 -366 -262 -673l-12 -3h-40q104 251 263 673l3 3h48z" />
    <glyph glyph-name="currency" unicode="&#xa4;" horiz-adv-x="598" 
d="M456 480q44 -82 45 -139q1 -53 -12 -92q-10 -32 -40 -81l66 -72l-44 -49l-67 74q-73 -52 -142 -52q-63 0 -133 48l-67 -76l-42 46l66 74q-44 80 -45 144q-2 81 51 166l-65 71l44 48l65 -71q72 53 146 53q61 0 130 -48l67 76l43 -47zM275 517q-79 0 -129 -65
q-47 -59 -46 -140q1 -77 45 -131q47 -57 123 -57q79 0 129 67q46 61 45 142q-1 76 -45 128q-48 56 -122 56z" />
    <glyph glyph-name="guilsinglleft" unicode="&#x2039;" horiz-adv-x="243" 
d="M178 448q-36 -66 -89 -182l90 -190l-65 -2l-3 3q-28 66 -86 182l-1 2q28 54 84 183l4 3q22 0 66 1z" />
    <glyph glyph-name="guilsinglright" unicode="&#x203a;" horiz-adv-x="241" 
d="M48 445q38 1 65 2l3 -3q24 -58 86 -182v-1q-46 -99 -83 -183l-4 -4h-66q40 72 89 182q-4 7 -90 189z" />
    <glyph glyph-name="daggerdbl" unicode="&#x2021;" horiz-adv-x="429" 
d="M389 493q-3 -22 -5 -59l-2 -2h-145q-4 -125 -6 -288q95 3 153 6l-5 -59l-2 -3q-37 1 -61 1h-86q0 -127 2 -256q-17 0 -83 -3q5 86 11 257q-92 -3 -154 -6q3 28 4 59l2 2q65 0 150 2q0 46 2 287q-91 -3 -153 -6q3 31 4 58l2 2l148 2v141q0 26 -4 95l2 2l78 2l1 -1
q-3 -53 -6 -238z" />
    <glyph glyph-name="periodcentered" unicode="&#xb7;" horiz-adv-x="205" 
d="M145 218l-2 -4q-35 -2 -97 -10q2 47 2 109l2 3q31 2 95 8l2 -2q-2 -56 -2 -104z" />
    <glyph glyph-name="periodcentered" unicode="&#x2219;" horiz-adv-x="205" 
d="M145 218l-2 -4q-35 -2 -97 -10q2 47 2 109l2 3q31 2 95 8l2 -2q-2 -56 -2 -104z" />
    <glyph glyph-name="quotesinglbase" unicode="&#x201a;" horiz-adv-x="203" 
d="M176 112q-40 -114 -82 -251l-4 -5l-60 -3q37 151 51 250l3 3q37 1 92 6z" />
    <glyph glyph-name="quotedblbase" unicode="&#x201e;" horiz-adv-x="340" 
d="M315 113q-52 -146 -83 -252l-3 -3l-60 -6q33 137 51 249l3 3q40 2 92 9zM178 108q-44 -112 -83 -249l-4 -4q-18 -2 -59 -6q19 82 51 248l1 3q57 3 94 8z" />
    <glyph glyph-name="perthousand" unicode="&#x2030;" horiz-adv-x="1175" 
d="M931 -7q-138 0 -141 191q-1 98 30 159q40 80 129 80q137 0 140 -195q3 -235 -158 -235zM580 -13q-138 0 -141 192q-2 97 30 158q40 79 129 79q137 0 140 -195q4 -234 -158 -234zM262 -13q-32 1 -67 0q121 259 259 644l5 4l60 1q-146 -356 -195 -487q-16 -46 -59 -157
q0 -1 -3 -5zM121 206q-137 0 -140 196q-2 96 30 156q40 78 128 78q137 0 140 -195q4 -235 -158 -235zM944 378q-53 0 -74 -74q-14 -48 -13 -116q3 -149 81 -149q88 0 85 197q-2 142 -79 142zM592 371q-52 0 -73 -71q-14 -47 -13 -121q2 -147 81 -147q87 0 84 198
q-2 141 -79 141zM134 591q-89 0 -86 -190q2 -149 80 -149q88 0 85 192q-2 147 -79 147z" />
    <glyph glyph-name="Acircumflex" unicode="&#xc2;" horiz-adv-x="555" 
d="M-8 -3l110 329q60 183 103 333l4 4q71 3 125 7l3 -3q29 -126 85 -331q37 -137 93 -330l-4 -4l-93 -5l-3 3q-16 71 -50 212q-106 -1 -228 -4q-36 -124 -56 -203l-3 -4q-44 0 -86 -4zM263 598l-108 -332q89 1 195 4zM147 684q29 50 76 151l5 4q33 2 105 5l3 -3
q21 -48 61 -142l-2 -6h-31q-15 0 -40 -2l-2 3q-15 36 -45 109q-8 -19 -31 -56t-31 -57l-4 -4q-40 0 -64 -2z" />
    <glyph glyph-name="Ecircumflex" unicode="&#xca;" horiz-adv-x="490" 
d="M381 381q-3 -26 -5 -67l-1 -1q-32 0 -104 3q-48 2 -105 2h-21q-3 -128 -3 -255h37h223q-2 -22 -4 -64l-2 -2q-28 -1 -60 -1l-287 1q9 158 10 266l1 116q2 186 -2 282l2 1q116 0 349 3q-4 -42 -6 -67l-1 -2q-25 0 -118 4q-70 3 -118 3h-13q-5 -100 -7 -222h235zM115 693
q29 50 76 151l5 4q33 2 105 5l3 -3q21 -48 61 -142l-2 -6h-31q-15 0 -40 -2l-2 3q-15 36 -45 109q-8 -19 -31 -56t-31 -57l-4 -4q-40 0 -64 -2z" />
    <glyph glyph-name="Aacute" unicode="&#xc1;" horiz-adv-x="555" 
d="M-8 -3l110 329q60 183 103 333l4 4q71 3 125 7l3 -3q29 -126 85 -331q37 -137 93 -330l-4 -4l-93 -5l-3 3q-16 71 -50 212q-106 -1 -228 -4q-36 -124 -56 -203l-3 -4q-44 0 -86 -4zM263 598l-108 -332q89 1 195 4zM239 697q30 83 50 154l3 3l19 -1q24 -1 81 4
q-44 -62 -91 -156l-5 -3q-24 0 -57 -1z" />
    <glyph glyph-name="Edieresis" unicode="&#xcb;" horiz-adv-x="490" 
d="M381 381q-3 -26 -5 -67l-1 -1q-32 0 -104 3q-48 2 -105 2h-21q-3 -128 -3 -255h37h223q-2 -22 -4 -64l-2 -2q-28 -1 -60 -1l-287 1q9 158 10 266l1 116q2 186 -2 282l2 1q116 0 349 3q-4 -42 -6 -67l-1 -2q-25 0 -118 4q-70 3 -118 3h-13q-5 -100 -7 -222h235zM371 736
l-8 -7q-19 -4 -63 -11q5 30 11 106l96 6zM194 736l-7 -7q-20 -4 -63 -11q4 30 11 106q30 2 95 6z" />
    <glyph glyph-name="Egrave" unicode="&#xc8;" horiz-adv-x="490" 
d="M381 381q-3 -26 -5 -67l-1 -1q-32 0 -104 3q-48 2 -105 2h-21q-3 -128 -3 -255h37h223q-2 -22 -4 -64l-2 -2q-28 -1 -60 -1l-287 1q9 158 10 266l1 116q2 186 -2 282l2 1q116 0 349 3q-4 -42 -6 -67l-1 -2q-25 0 -118 4q-70 3 -118 3h-13q-5 -100 -7 -222h235zM208 693
q-50 100 -83 159l97 -2l3 -2q6 -31 41 -150l-4 -3q-28 1 -54 -2z" />
    <glyph glyph-name="Iacute" unicode="&#xcd;" horiz-adv-x="246" 
d="M156 3q-40 -2 -95 -6q12 277 8 608l-52 -1l13 56l6 5l126 3q-10 -217 -10 -416q0 -128 4 -249zM71 705q30 83 50 154l3 3l19 -1q24 -1 81 4q-44 -62 -91 -156l-5 -3q-24 0 -57 -1z" />
    <glyph glyph-name="Icircumflex" unicode="&#xce;" horiz-adv-x="246" 
d="M156 3q-40 -2 -95 -6q12 277 8 608l-52 -1l13 56l6 5l126 3q-10 -217 -10 -416q0 -128 4 -249zM-18 692q29 50 76 151l5 4q33 2 105 5l3 -3q21 -48 61 -142l-2 -6h-31q-15 0 -40 -2l-2 3q-15 36 -45 109q-8 -19 -31 -56t-31 -57l-4 -4q-40 0 -64 -2z" />
    <glyph glyph-name="Idieresis" unicode="&#xcf;" horiz-adv-x="246" 
d="M156 3q-40 -2 -95 -6q12 277 8 608l-52 -1l13 56l6 5l126 3q-10 -217 -10 -416q0 -128 4 -249zM229 739l-8 -7q-19 -4 -63 -11q5 30 11 106l96 6zM52 739l-7 -7q-20 -4 -63 -11q4 30 11 106q30 2 95 6z" />
    <glyph glyph-name="Igrave" unicode="&#xcc;" horiz-adv-x="246" 
d="M156 3q-40 -2 -95 -6q12 277 8 608l-52 -1l13 56l6 5l126 3q-10 -217 -10 -416q0 -128 4 -249zM102 698q-50 100 -83 159l97 -2l3 -2q6 -31 41 -150l-4 -3q-28 1 -54 -2z" />
    <glyph glyph-name="Oacute" unicode="&#xd3;" horiz-adv-x="672" 
d="M19 318q-3 157 64 257q78 114 229 114q135 0 206 -100q62 -87 66 -228q4 -158 -63 -258q-76 -115 -228 -115q-136 0 -208 100q-63 87 -66 230zM310 628q-200 0 -194 -303q2 -110 37 -181q47 -94 145 -94q107 0 157 109q37 82 35 202q-6 267 -180 267zM279 712
q30 83 50 154l3 3l19 -1q24 -1 81 4q-44 -62 -91 -156l-5 -3q-24 0 -57 -1z" />
    <glyph glyph-name="Ocircumflex" unicode="&#xd4;" horiz-adv-x="672" 
d="M19 318q-3 157 64 257q78 114 229 114q135 0 206 -100q62 -87 66 -228q4 -158 -63 -258q-76 -115 -228 -115q-136 0 -208 100q-63 87 -66 230zM310 628q-200 0 -194 -303q2 -110 37 -181q47 -94 145 -94q107 0 157 109q37 82 35 202q-6 267 -180 267zM185 713
q29 50 76 151l5 4q33 2 105 5l3 -3q21 -48 61 -142l-2 -6h-31q-15 0 -40 -2l-2 3q-15 36 -45 109q-8 -19 -31 -56t-31 -57l-4 -4q-40 0 -64 -2z" />
    <glyph glyph-name="Ograve" unicode="&#xd2;" horiz-adv-x="672" 
d="M19 318q-3 157 64 257q78 114 229 114q135 0 206 -100q62 -87 66 -228q4 -158 -63 -258q-76 -115 -228 -115q-136 0 -208 100q-63 87 -66 230zM310 628q-200 0 -194 -303q2 -110 37 -181q47 -94 145 -94q107 0 157 109q37 82 35 202q-6 267 -180 267zM290 716
q-50 100 -83 159l97 -2l3 -2q6 -31 41 -150l-4 -3q-28 1 -54 -2z" />
    <glyph glyph-name="Uacute" unicode="&#xda;" horiz-adv-x="637" 
d="M281 -13q-85 0 -143 39q-64 44 -77 125q-3 21 -4 60q3 129 4 388q-1 30 -3 61l4 4h12q37 0 84 4q-2 -66 -8 -365q-1 -58 -1 -70q3 -184 143 -184q143 0 156 180q1 16 2 81q3 236 -1 355q20 1 79 6q-4 -102 -6 -412q-1 -133 -53 -199q-58 -73 -188 -73zM255 683
q30 83 50 154l3 3l19 -1q24 -1 81 4q-44 -62 -91 -156l-5 -3q-24 0 -57 -1z" />
    <glyph glyph-name="Ucircumflex" unicode="&#xdb;" horiz-adv-x="637" 
d="M281 -13q-85 0 -143 39q-64 44 -77 125q-3 21 -4 60q3 129 4 388q-1 30 -3 61l4 4h12q37 0 84 4q-2 -66 -8 -365q-1 -58 -1 -70q3 -184 143 -184q143 0 156 180q1 16 2 81q3 236 -1 355q20 1 79 6q-4 -102 -6 -412q-1 -133 -53 -199q-58 -73 -188 -73zM178 695
q29 50 76 151l5 4q33 2 105 5l3 -3q21 -48 61 -142l-2 -6h-31q-15 0 -40 -2l-2 3q-15 36 -45 109q-8 -19 -31 -56t-31 -57l-4 -4q-40 0 -64 -2z" />
    <glyph glyph-name="Ugrave" unicode="&#xd9;" horiz-adv-x="637" 
d="M281 -13q-85 0 -143 39q-64 44 -77 125q-3 21 -4 60q3 129 4 388q-1 30 -3 61l4 4h12q37 0 84 4q-2 -66 -8 -365q-1 -58 -1 -70q3 -184 143 -184q143 0 156 180q1 16 2 81q3 236 -1 355q20 1 79 6q-4 -102 -6 -412q-1 -133 -53 -199q-58 -73 -188 -73zM287 670
q-50 100 -83 159l97 -2l3 -2q6 -31 41 -150l-4 -3q-28 1 -54 -2z" />
    <glyph glyph-name="dotlessi" unicode="&#x131;" horiz-adv-x="223" 
d="M55 -4q13 173 10 380q-1 51 -6 104q42 8 95 22l2 -2q-10 -176 -10 -331q0 -87 3 -167q-53 -2 -94 -6z" />
    <glyph glyph-name="circumflex" unicode="&#x2c6;" horiz-adv-x="463" 
d="M101 552q29 50 76 151l5 4q33 2 105 5l3 -3q21 -48 61 -142l-2 -6h-31q-15 0 -40 -2l-2 3q-15 36 -45 109q-8 -19 -31 -56t-31 -57l-4 -4q-40 0 -64 -2z" />
    <glyph glyph-name="tilde" unicode="&#x2dc;" horiz-adv-x="306" 
d="M264 611q-40 -45 -71 -45q-23 0 -64.5 22t-64.5 22q-37 0 -72 -50h-1q3 40 4 70q5 16 28.5 30.5t41.5 14.5q22 0 66.5 -22t65.5 -22q37 0 69 50l2 -1q-2 -24 -4 -69z" />
    <glyph glyph-name="macron" unicode="&#xaf;" horiz-adv-x="263" 
d="M242 673q-4 -37 -6 -66l-2 -2q-85 -2 -262 -8q5 41 6 63l2 4h31q149 0 231 9z" />
    <glyph glyph-name="macron" unicode="&#x2c9;" horiz-adv-x="263" 
d="M242 673q-4 -37 -6 -66l-2 -2q-85 -2 -262 -8q5 41 6 63l2 4h31q149 0 231 9z" />
    <glyph glyph-name="breve" unicode="&#x2d8;" horiz-adv-x="263" 
d="M210 703q-8 -139 -121 -139q-102 0 -104 126l1 1q34 2 58 5q6 -68 55 -68q45 0 53 67l1 2q28 2 57 6z" />
    <glyph glyph-name="dotaccent" unicode="&#x2d9;" horiz-adv-x="264" 
d="M143 692q-1 -55 -1 -100l-1 -2q-47 -2 -91 -5q3 56 3 101q13 1 90 6z" />
    <glyph glyph-name="ring" unicode="&#x2da;" horiz-adv-x="545" 
d="M184 568q-37 0 -62 21t-25 58q0 40 31 64q28 23 69 23q37 0 62.5 -22.5t25.5 -59.5q0 -40 -30 -62t-71 -22zM193 702q-21 0 -33.5 -15.5t-11.5 -37.5q1 -50 44 -50q44 0 43 49q-1 54 -42 54z" />
    <glyph glyph-name="cedilla" unicode="&#xb8;" horiz-adv-x="258" 
d="M204 -44q-12 -47 -33 -131l-3 -4q-37 0 -83 -3q24 49 57 133l4 4z" />
    <glyph glyph-name="hungarumlaut" unicode="&#x2dd;" horiz-adv-x="262" 
d="M243 711q-42 -78 -86 -157q-28 1 -55 0q25 69 51 153l2 2q27 -1 37 -1q9 0 51 3zM95 706q-32 -55 -79 -153l-5 -4q-27 2 -55 1q34 91 51 152l3 3q25 -1 37 -1q10 0 48 2z" />
    <glyph glyph-name="ogonek" unicode="&#x2db;" horiz-adv-x="258" 
d="M224 -91q-3 -28 -5 -52l-1 -4q-46 -25 -80 -25q-33 0 -53.5 19.5t-21.5 51.5q-1 75 115 120l8 -9q-61 -36 -60 -84t43 -48q27 0 55 31z" />
    <glyph glyph-name="caron" unicode="&#x2c7;" horiz-adv-x="263" 
d="M214 712q-31 -77 -65 -155q-37 -2 -112 -5l-4 3q-17 49 -53 146q33 0 72 4l3 -3q16 -36 47 -110q19 38 52 114l5 4q34 0 55 2z" />
    <glyph glyph-name="Eth" unicode="&#xd0;" horiz-adv-x="671" 
d="M611 373q2 -89 -26 -164q-39 -107 -124 -157q-71 -42 -173 -48l-188 -6q7 144 9 300q-45 -1 -82 -3q1 3 3 89l2 2q19 1 58 0l20 -1q0 105 -2 187q0 27 -6 92l5 3h24q31 0 91 3.5t90 3.5q127 0 190 -45q107 -75 109 -256zM518 381q-3 235 -220 235q-24 0 -97 -4
q-4 -109 -6 -227q67 1 114 5l-3 -91h-113q-1 -104 -1 -237q123 1 177 22q87 33 124 135q27 70 25 162z" />
    <glyph glyph-name="eth" unicode="&#xf0;" horiz-adv-x="547" 
d="M519 637l-3 -70h-93q-5 -162 -5 -332q0 -127 7 -228l-2 -3q-20 1 -48 14l-46 21q-70 -48 -126 -48q-89 0 -141 71q-45 62 -47 155q-3 132 70.5 208t205.5 76q23 0 50 -2v67q-57 -1 -101 -2q1 2 3 69l2 1q20 1 58 0l38 -1q-1 33 -4 72q36 8 92 23l-4 -94q54 1 94 3z
M338 442q-34 2 -47 2q-97 0 -147 -64q-45 -59 -43 -159q1 -64 29 -109q34 -54 94 -54q58 0 111 49q3 151 3 335z" />
    <glyph glyph-name="Yacute" unicode="&#xdd;" horiz-adv-x="484" 
d="M459 669q-68 -126 -199 -384q-2 -85 -2 -155t2 -127l-2 -1q-11 0 -94 -7q7 139 6 256q0 12 -2 24q-99 220 -185 389q33 0 99 3l4 -2q17 -45 137 -311q102 202 150 310l4 4q27 -1 82 1zM198 645q30 83 50 154l3 3l19 -1q24 -1 81 4q-44 -62 -91 -156l-5 -3q-24 0 -57 -1z
" />
    <glyph glyph-name="yacute" unicode="&#xfd;" horiz-adv-x="413" 
d="M403 505q-62 -163 -162 -459q-21 -63 -75 -229l-5 -5q-52 -2 -88 -5q35 63 59 111q2 4 30 73q-12 42 -74 234q-39 121 -89 271q60 6 94 11l3 -2q32 -127 109 -395q40 128 115 389l4 3q37 1 79 3zM196 549q30 83 50 154l3 3l19 -1q24 -1 81 4q-44 -62 -91 -156l-5 -3
q-24 0 -57 -1z" />
    <glyph glyph-name="Thorn" unicode="&#xde;" horiz-adv-x="539" 
d="M64 -3h-3q9 197 9 367q0 57 -3 112l3 46q0 41 -1 83l-52 -1l13 56l6 5h132q-3 -46 -7 -138l7 -1q25 -3 57 0q41 4 45 4q210 0 212 -170q1 -53 -27 -98q-64 -104 -260 -105l-22 51q73 3 113 13q110 30 108 136q-2 120 -142 120q-35 0 -91 -6q-7 -239 -1 -468l-1 -2
q-49 -1 -95 -4v0z" />
    <glyph glyph-name="thorn" unicode="&#xfe;" horiz-adv-x="509" 
d="M248 452q-51 0 -112 -46q-5 -129 -5 -341q20 -1 32 -1q98 0 153 64q52 61 50 161q-1 64 -27 109q-31 54 -91 54zM134 725q-2 -42 -4 -257l2 -2q70 48 146 48q82 0 131 -70q44 -62 45 -148q2 -140 -93 -217q-89 -72 -230 -67q-1 -112 1 -200l-2 -2l-88 -13q16 338 13 500
q0 60 -4 170l1 2q-3 78 -9 235q42 9 91 21z" />
    <glyph glyph-name="onehalf" unicode="&#xbd;" horiz-adv-x="659" 
d="M510 827q-220 -532 -338 -855l-5 -6q-47 1 -72 1q25 57 170 418q76 190 169 436l4 4zM161 435q-30 0 -71 -3q6 283 5 328q-27 -7 -72 -18l-2 1q2 19 3 34l1 1q26 3 67 15q54 16 68 20l1 -1q-4 -54 -4 -210q0 -115 4 -167zM624 -22l-3 -3h-76h-68q-31 0 -89 -2h-2l-12 31
v15q36 37 125 127q23 23 32 35q31 44 31 52q-1 32 -17 43.5t-55 11.5q-29 0 -46 -8q-12 -6 -39 -29l-3 2q1 4 -1 24.5t-2 30.5q4 5 18 12q33 18 84 18q52 0 85 -23q38 -26 39 -76q1 -38 -35 -78q-13 -14 -42 -42q-19 -21 -85 -88q47 -3 165 -2l1 -1q-2 -18 -5 -50z" />
    <glyph glyph-name="onequarter" unicode="&#xbc;" horiz-adv-x="659" 
d="M510 827q-220 -532 -338 -855l-5 -6q-47 1 -72 1q25 57 170 418q76 190 169 436l4 4zM161 435q-30 0 -71 -3q6 283 5 328q-27 -7 -72 -18l-2 1q2 19 3 34l1 1q26 3 67 15q54 16 68 20l1 -1q-4 -54 -4 -210q0 -115 4 -167zM643 78h-17q-4 0 -32 -1q-1 -16 0 -40
q1 -33 1 -47v-1q-26 0 -67 -3l-1 1q0 24 1 89l-183 -1v20q0 15 24 51l24 37q39 58 99 156l12 16h93q0 3 0 -233q27 0 52 2q-3 -15 -6 -46zM409 117l123 2l1 184z" />
    <glyph glyph-name="threequarters" unicode="&#xbe;" horiz-adv-x="659" 
d="M510 827q-220 -532 -338 -855l-5 -6q-47 1 -72 1q25 57 170 418q76 190 169 436l4 4zM643 78h-17q-4 0 -32 -1q-1 -16 0 -40q1 -33 1 -47v-1q-26 0 -67 -3l-1 1q0 24 1 89l-183 -1v20q0 15 24 51l24 37q39 58 99 156l12 16h93q0 3 0 -233q27 0 52 2q-3 -15 -6 -46z
M409 117l123 2l1 184zM252 517q-37 -78 -148 -78q-54 0 -93 23l-1 1q2 17 4 52l3 1q43 -35 75 -35q43 0 72 22.5t29 59.5q-1 38 -25.5 58.5t-63.5 20.5q-17 0 -42 -9l3 17q39 43 59 68q18 19 52 61q-38 -1 -156 -7q0 3 2 23q2 16 2 25l1 2q90 -2 146 -2q45 0 69 1l9 -19
q-16 -23 -51 -63q-38 -44 -53 -63q117 -18 118 -110q0 -25 -11 -49z" />
    <glyph glyph-name="nonbreakingspace" unicode="&#xa0;" horiz-adv-x="273" 
 />
    <glyph glyph-name="u20AC" unicode="&#x20ac;" horiz-adv-x="605" 
d="M30 442h45q27 117 107.5 181.5t201.5 64.5q68 0 140 -27l-19 -77l-44 29q-49 19 -80 19q-84 0 -140 -55q-52 -50 -73 -135h315l-15 -68h-311q-2 -20 -2 -55v-8l299 -1l-12 -67h-279q16 -88 64 -139q55 -56 140 -56q49 0 89 19q30 14 78 53q-5 -53 -7 -85l-2 -3
q-78 -45 -174 -45q-119 0 -192 68t-91 188h-49l13 68h30v3q0 40 2 60l-47 1z" />
    <glyph glyph-name="apple" unicode="&#xf000;" horiz-adv-x="946" 
d="M198 361q-1 101 59 178q64 82 163 82t166 -82q63 -76 64 -178t-58 -178q-65 -83 -164 -83t-166 82q-63 77 -64 179z" />
    <glyph glyph-name="glyph220" horiz-adv-x="245" 
 />
    <glyph glyph-name="glyph211" horiz-adv-x="273" 
 />
    <glyph glyph-name="glyph222" horiz-adv-x="245" 
 />
    <glyph glyph-name="spareeurosymbol" horiz-adv-x="583" 
d="M552 661q-2 -9 -22 -112l-2 -2l-49 9l1 60q-43 16 -70 16q-113 0 -173 -94q-36 -56 -47 -134h300l-14 -59h-290q-1 -13 0 -26q0 -17 1 -34h268l-14 -58h-245q14 -58 45 -100q57 -79 159 -79q47 0 88 19q12 5 19 12q15 16 26 25q6 -70 6 -81l-2 -3q-79 -33 -153 -33
q-115 0 -188 64t-95 176h-89l14 59h68q-1 13 -1 28q-1 16 0 31h-74l14 59h64q18 132 100 208t215 76q68 0 140 -27z" />
    </font>
</defs>
</svg>
